{"glyphs":{"0":{"ha":694,"x_min":0,"x_max":0,"o":"m 650 340 b 346 686 650 517 560 686 b 43 332 135 686 43 507 b 339 -15 43 163 129 -15 b 650 340 553 -15 650 165 z m 592 338 b 343 115 592 204 485 115 b 104 332 203 115 104 200 b 346 567 104 464 201 567 b 592 338 486 567 592 468 z "},"1":{"ha":694,"x_min":0,"x_max":0,"o":"m 660 39 b 603 38 646 39 625 38 b 464 81 549 38 483 43 b 439 329 443 121 439 229 b 442 518 439 411 442 488 l 442 569 b 481 714 442 622 446 685 l 463 735 b 78 622 346 675 208 643 l 54 531 b 307 622 129 574 218 608 l 307 183 b 136 39 307 46 249 39 l 97 39 l 83 0 l 646 0 z "},"2":{"ha":694,"x_min":0,"x_max":0,"o":"m 688 110 l 213 110 l 394 240 b 574 490 476 300 574 386 b 533 606 574 532 558 571 b 297 685 485 672 379 685 b 65 650 250 685 106 674 b 53 503 63 601 58 551 l 88 497 b 267 608 121 574 174 608 b 421 474 356 608 421 557 b 39 74 421 311 189 136 l 18 0 l 457 -1 b 626 -53 503 -1 614 -1 z "},"3":{"ha":694,"x_min":0,"x_max":0,"o":"m 658 14 b 315 297 658 189 490 290 b 565 522 418 329 565 413 b 314 686 565 650 431 686 b 79 654 236 686 154 675 l 56 518 l 92 504 b 261 613 107 576 186 613 b 426 492 343 613 426 576 b 167 304 426 386 272 304 l 164 304 l 151 251 b 210 254 171 254 190 254 b 506 7 369 254 506 176 b 232 -258 506 -157 414 -258 b 15 -192 140 -258 83 -250 l 15 -294 b 197 -321 76 -308 133 -321 b 658 14 422 -321 658 -226 z "},"4":{"ha":694,"x_min":0,"x_max":0,"o":"m 697 92 l 515 92 l 515 314 l 381 282 l 381 93 l 117 93 b 524 736 274 301 388 517 l 375 704 b 40 99 335 532 167 236 l 8 0 l 379 0 l 379 -312 l 515 -282 l 515 0 l 661 0 z "},"5":{"ha":694,"x_min":0,"x_max":0,"o":"m 658 692 b 632 700 647 696 643 696 b 381 663 594 665 463 663 l 339 663 b 201 667 293 663 247 664 l 61 265 b 146 269 89 268 117 269 b 515 15 325 269 515 208 b 250 -244 515 -135 415 -244 b 33 -193 176 -244 92 -239 l 33 -299 b 208 -308 92 -306 150 -308 b 646 51 443 -308 646 -181 b 196 371 646 292 425 371 l 165 371 l 231 560 l 613 560 z "},"6":{"ha":694,"x_min":0,"x_max":0,"o":"m 682 924 l 647 993 b 33 365 325 911 33 703 b 343 -1 33 181 122 -1 b 668 288 531 -1 668 115 b 381 550 668 446 557 550 b 242 499 311 550 301 525 l 233 456 b 324 481 264 468 289 481 b 540 221 488 481 540 360 b 389 58 540 136 492 58 b 179 363 229 58 179 238 b 181 396 179 374 179 385 b 511 889 208 624 276 794 b 682 924 563 910 626 918 z "},"7":{"ha":694,"x_min":0,"x_max":0,"o":"m 665 665 l 56 665 l 18 468 l 49 458 b 235 561 79 544 144 561 l 558 560 b 114 -251 371 285 256 46 l 215 -294 b 647 578 342 7 463 301 z "},"8":{"ha":694,"x_min":0,"x_max":0,"o":"m 654 229 b 422 488 654 369 539 425 b 615 704 515 536 615 593 b 349 892 615 833 471 892 b 57 664 210 892 57 803 b 261 453 57 557 171 500 b 39 199 156 399 39 324 b 304 -7 39 56 171 -7 b 654 229 464 -7 654 57 z m 539 189 b 354 46 539 101 440 46 b 160 244 235 46 160 135 b 293 431 160 343 204 388 b 539 189 386 382 539 307 z m 514 683 b 386 506 514 610 451 542 b 169 708 307 549 169 610 b 344 846 169 801 250 846 b 514 683 446 846 514 772 z "},"9":{"ha":694,"x_min":0,"x_max":0,"o":"m 656 319 b 347 682 656 500 564 682 b 38 399 160 682 38 571 b 325 149 38 239 154 149 b 444 182 379 149 394 163 l 457 224 b 378 206 431 215 406 206 b 171 456 235 207 171 322 b 317 628 171 542 210 628 b 514 311 469 628 514 424 b 511 257 514 293 514 275 b 10 -271 469 -35 311 -193 l 43 -322 b 656 319 375 -229 656 -26 z "},"\u0000":{"ha":694,"x_min":0,"x_max":0,"o":""},"\r":{"ha":0,"x_min":0,"x_max":0,"o":""}," ":{"ha":347,"x_min":0,"x_max":0,"o":""},"!":{"ha":394,"x_min":0,"x_max":0,"o":"m 310 915 l 126 915 b 128 911 126 914 128 913 b 114 882 128 904 119 892 b 151 846 135 879 147 854 b 167 776 163 824 164 808 b 203 257 179 596 193 438 l 254 257 z m 301 67 b 225 143 301 110 268 143 b 150 67 182 143 150 110 b 225 -10 150 22 179 -10 b 301 67 269 -10 301 22 z "},"\"":{"ha":467,"x_min":0,"x_max":0,"o":"m 400 1047 b 340 1076 400 1074 358 1076 b 283 1047 321 1076 283 1074 b 289 994 283 1029 286 1011 l 325 750 b 340 744 329 746 335 744 b 357 750 346 744 353 746 l 394 996 b 400 1047 397 1011 400 1032 z m 193 1047 b 136 1076 193 1074 156 1076 b 76 1047 118 1076 76 1074 b 83 994 76 1031 81 1011 l 119 750 b 136 744 124 746 129 744 b 151 750 142 744 147 746 l 188 996 b 193 1047 190 1013 193 1031 z "},"#":{"ha":1000,"x_min":0,"x_max":0,"o":"m 901 246 l 900 308 l 639 308 l 639 460 l 901 460 l 901 522 l 639 522 l 639 775 l 575 775 l 575 522 l 421 522 l 421 775 l 356 775 l 356 524 l 97 524 l 97 460 l 356 460 l 356 308 l 97 308 l 97 246 l 356 246 l 356 -28 l 421 -28 l 421 246 l 575 246 l 575 -28 l 639 -28 l 639 246 z m 575 308 l 421 308 l 421 460 l 575 460 z "},"$":{"ha":692,"x_min":0,"x_max":0,"o":"m 610 201 b 381 414 610 340 476 374 l 413 650 b 521 522 486 640 519 594 l 586 532 l 586 679 b 418 693 536 689 468 690 l 436 813 l 381 821 l 369 696 b 101 508 261 693 101 649 l 101 503 b 318 300 106 383 231 333 l 285 35 b 149 165 206 43 149 81 l 149 181 l 78 167 l 78 15 b 278 -12 136 -1 218 -12 l 261 -147 l 313 -151 l 331 -12 b 610 201 464 -7 610 33 z m 475 161 b 335 32 475 76 414 38 l 365 282 b 475 161 425 253 475 235 z m 364 654 l 333 429 b 232 535 286 453 232 476 b 364 654 232 606 299 650 z "},"%":{"ha":968,"x_min":0,"x_max":0,"o":"m 824 914 l 774 940 l 738 882 b 596 876 690 876 643 876 b 375 882 522 876 449 878 b 250 917 332 910 301 917 b 51 710 142 917 51 814 b 257 539 51 606 163 539 b 458 728 360 539 458 621 b 408 839 458 767 435 811 b 526 835 447 836 486 835 b 721 851 592 835 658 839 l 79 -81 l 118 -114 z m 888 176 b 690 365 888 283 793 365 b 490 169 583 365 490 276 b 694 -14 490 58 590 -14 b 888 176 797 -14 888 74 z m 389 725 b 267 583 389 654 342 583 b 119 729 192 583 119 654 b 257 878 119 801 181 878 b 389 725 335 878 389 797 z m 822 172 b 699 32 822 103 774 32 b 560 176 621 32 560 100 b 682 322 560 246 604 322 b 822 172 760 322 822 249 z "},"&":{"ha":919,"x_min":0,"x_max":0,"o":"m 878 596 b 789 685 878 642 840 685 b 736 660 776 685 744 667 b 822 576 789 653 822 625 b 646 454 822 474 732 454 b 542 460 608 454 571 457 l 496 392 l 507 392 b 632 268 583 392 632 347 b 596 165 632 222 625 200 b 329 431 533 214 369 367 b 507 611 388 472 504 513 l 507 614 b 361 696 507 692 413 696 b 136 547 271 696 136 644 b 197 400 136 494 167 443 b 50 181 121 349 50 278 b 276 -17 50 51 157 -17 b 518 60 367 -17 444 8 b 708 -12 576 11 629 -12 b 875 90 779 -12 840 26 l 856 115 b 779 71 833 81 822 71 b 625 146 719 71 678 103 b 726 301 682 192 726 224 b 643 407 726 344 682 396 b 878 596 751 408 878 475 z m 497 82 b 378 49 457 57 425 49 b 171 244 265 49 171 128 b 219 374 171 304 172 338 b 497 82 260 313 425 135 z m 399 586 b 304 461 399 524 350 492 b 250 582 283 494 250 542 b 326 663 250 626 281 663 b 399 586 371 663 399 629 z "},"'":{"ha":260,"x_min":0,"x_max":0,"o":"m 193 1053 b 135 1081 193 1078 153 1081 b 76 1053 118 1081 76 1078 b 83 999 76 1035 81 1017 l 119 756 b 135 750 124 751 129 750 b 150 756 140 750 146 751 l 186 1000 b 193 1053 189 1017 193 1036 z "},"(":{"ha":514,"x_min":0,"x_max":0,"o":"m 444 996 l 425 1024 b 74 333 217 889 74 569 b 418 -321 74 96 210 -186 l 433 -296 b 210 340 271 -172 210 149 b 444 996 210 533 279 876 z "},")":{"ha":514,"x_min":0,"x_max":0,"o":"m 443 339 b 111 1022 443 572 319 888 l 93 994 b 314 339 256 875 314 528 b 89 -297 314 146 253 -174 l 106 -322 b 443 339 315 -186 443 101 z "},"*":{"ha":589,"x_min":0,"x_max":0,"o":"m 538 785 l 522 818 l 332 747 l 321 960 l 282 960 l 269 747 l 65 821 l 51 786 l 246 694 l 126 531 l 158 501 l 300 660 l 443 501 l 476 529 l 356 697 z "},"+":{"ha":1000,"x_min":0,"x_max":0,"o":"m 903 365 l 903 429 l 532 429 l 532 783 l 468 783 l 468 429 l 99 429 l 99 365 l 468 365 l 468 -19 l 532 -19 l 532 365 z "},",":{"ha":315,"x_min":0,"x_max":0,"o":"m 244 22 b 161 136 244 82 235 136 b 85 54 115 136 85 100 b 156 -21 85 11 113 -17 b -18 -207 138 -108 56 -167 b 0 -231 -11 -212 -3 -222 b 229 -32 93 -189 188 -131 b 244 22 233 -22 244 11 z "},"-":{"ha":467,"x_min":0,"x_max":0,"o":"m 397 400 l 92 400 l 74 329 l 381 329 z "},".":{"ha":318,"x_min":0,"x_max":0,"o":"m 239 69 b 158 147 239 117 206 147 b 81 69 113 147 81 115 b 158 -10 81 24 111 -10 b 239 69 206 -10 239 21 z "},"/":{"ha":704,"x_min":0,"x_max":0,"o":"m 717 993 l 672 1019 l -57 -151 l -15 -183 z "},":":{"ha":375,"x_min":0,"x_max":0,"o":"m 278 538 b 197 615 278 583 243 615 b 119 538 153 615 119 582 b 197 457 119 492 150 457 b 278 538 244 457 278 490 z m 282 75 b 203 153 282 121 249 153 b 124 75 157 153 124 121 b 203 -4 124 28 156 -4 b 282 75 250 -4 282 28 z "},";":{"ha":375,"x_min":0,"x_max":0,"o":"m 283 46 b 201 144 283 101 267 144 b 125 63 156 144 125 108 b 196 -11 125 19 153 -7 b 21 -199 178 -100 96 -158 b 40 -222 28 -204 38 -212 b 283 46 144 -172 283 -85 z m 278 538 b 197 615 278 583 243 615 b 119 538 153 615 119 582 b 197 457 119 492 150 457 b 278 538 244 457 278 490 z "},"<":{"ha":1000,"x_min":0,"x_max":0,"o":"m 899 718 l 871 775 l 96 399 l 869 19 l 897 76 l 236 397 z "},"=":{"ha":1000,"x_min":0,"x_max":0,"o":"m 903 476 l 903 539 l 99 539 l 99 476 z m 903 272 l 903 333 l 99 333 l 99 272 z "},">":{"ha":1000,"x_min":0,"x_max":0,"o":"m 899 399 l 124 775 l 96 718 l 758 397 l 97 76 l 125 19 z "},"?":{"ha":561,"x_min":0,"x_max":0,"o":"m 515 728 b 250 924 515 864 396 924 b 53 879 172 924 122 915 l 53 751 l 110 751 b 236 864 125 817 164 864 b 378 708 325 864 378 793 b 204 404 378 578 204 535 b 219 257 204 357 214 303 l 275 257 b 297 419 282 310 283 368 b 515 728 336 560 515 558 z m 329 67 b 253 143 329 110 296 143 b 178 67 210 143 178 110 b 253 -10 178 22 207 -10 b 329 67 297 -10 329 22 z "},"@":{"ha":1188,"x_min":0,"x_max":0,"o":"m 1114 585 b 672 974 1114 838 904 974 b 86 390 342 974 86 725 b 592 -64 86 90 308 -64 b 925 42 693 -64 843 -19 l 913 68 b 622 -15 836 25 708 -15 b 185 400 365 -15 185 132 b 672 940 185 689 376 940 b 1025 599 867 940 1025 806 b 843 267 1025 474 1001 267 b 789 333 789 267 789 279 b 793 388 789 351 790 369 b 864 754 804 472 829 676 b 782 758 838 756 810 758 b 456 642 658 758 550 725 b 332 318 372 569 332 426 b 424 200 332 250 346 200 b 654 328 513 200 601 257 l 675 332 b 669 268 671 311 669 289 b 707 185 669 243 692 207 b 843 218 753 194 797 206 b 1114 585 1019 264 1114 403 z m 726 688 b 518 286 710 540 721 286 b 460 383 460 286 460 331 l 460 424 b 464 474 460 440 460 457 b 632 692 488 583 511 679 b 651 693 640 693 646 693 b 686 692 663 693 669 692 b 726 688 699 692 714 692 z "},"A":{"ha":1008,"x_min":0,"x_max":0,"o":"m 1008 28 b 854 181 925 28 878 129 b 643 647 782 336 711 492 b 536 900 613 718 554 828 l 372 900 b 386 838 383 883 386 856 b 344 668 386 779 368 722 l 179 289 b -3 28 151 226 79 38 b 6 0 0 18 4 10 l 304 0 l 311 28 l 303 28 b 215 111 246 28 215 56 b 294 379 215 200 265 300 l 614 379 l 704 165 b 718 93 713 147 718 119 b 679 28 718 60 708 31 l 671 0 l 1003 0 z m 590 443 l 319 443 l 443 765 z "},"B":{"ha":843,"x_min":0,"x_max":0,"o":"m 797 260 l 797 264 b 469 497 797 469 481 496 b 703 725 481 499 703 550 b 433 899 703 890 476 899 l 36 899 l 25 865 b 99 850 25 865 72 865 b 142 769 132 831 142 808 l 142 118 b 90 28 142 58 90 28 l 83 0 l 483 0 b 797 260 532 0 792 11 z m 649 260 b 411 42 649 129 571 42 b 281 178 314 42 281 99 l 281 463 b 319 464 285 463 300 464 b 649 261 415 464 649 447 z m 560 700 l 560 696 b 321 510 560 535 399 510 b 281 513 299 510 283 511 l 281 850 b 351 856 281 850 311 856 b 560 700 433 856 558 833 z "},"C":{"ha":994,"x_min":0,"x_max":0,"o":"m 936 135 b 668 58 867 85 754 58 b 229 511 371 58 229 254 b 586 868 229 721 350 868 b 883 668 731 868 867 810 l 917 674 l 917 883 b 610 917 831 911 700 917 b 79 465 313 917 79 750 b 582 -10 79 178 268 -10 b 907 38 679 -10 817 0 z "},"D":{"ha":1093,"x_min":0,"x_max":0,"o":"m 1025 500 b 471 900 1025 815 764 900 l 43 900 l 29 867 l 38 867 b 133 822 75 867 119 857 b 142 638 142 800 142 668 l 142 290 b 143 204 142 272 143 240 b 96 32 143 126 136 33 b 89 0 94 19 92 8 l 492 0 b 1025 500 822 0 1025 201 z m 872 446 b 490 44 872 217 760 44 b 281 171 378 44 281 46 l 281 849 b 431 856 329 853 381 856 b 872 446 740 856 872 740 z "},"E":{"ha":781,"x_min":0,"x_max":0,"o":"m 81 858 b 142 779 119 842 142 797 l 142 129 b 88 33 142 86 128 33 b 82 0 85 15 82 0 l 728 0 l 757 211 l 703 219 b 575 57 703 219 672 69 b 458 50 531 51 494 50 b 392 51 436 50 415 51 b 281 189 324 53 281 126 l 281 451 l 536 451 b 629 361 586 451 629 361 l 656 374 l 656 588 l 618 583 b 547 504 618 583 589 506 b 431 503 513 503 469 503 b 281 504 351 503 281 504 l 281 853 b 381 856 281 853 326 856 b 546 840 439 856 508 853 b 639 704 597 824 639 704 l 675 714 l 675 899 l 28 899 b 22 868 28 899 25 881 z "},"F":{"ha":690,"x_min":0,"x_max":0,"o":"m 668 713 l 668 899 l 26 899 b 21 867 26 888 24 876 b 111 842 53 867 89 867 b 146 685 144 807 146 733 l 146 361 b 147 243 146 336 147 292 b 96 28 147 143 140 28 l 94 28 b 85 -1 90 15 88 8 l 431 -1 l 436 26 b 328 64 394 32 357 35 b 281 307 285 106 281 251 l 281 449 l 428 449 b 592 360 506 449 575 446 l 619 369 l 619 588 l 588 585 l 588 579 b 560 524 588 558 574 539 b 458 503 543 506 499 503 l 400 503 b 281 501 360 501 321 501 l 281 850 b 394 854 318 853 357 854 b 632 701 524 854 628 843 z "},"G":{"ha":1090,"x_min":0,"x_max":0,"o":"m 1003 372 l 665 372 l 654 338 b 821 228 754 338 821 332 l 821 72 b 664 38 782 49 710 38 b 224 504 364 38 224 249 b 626 867 224 722 389 867 b 913 667 771 867 888 808 l 954 675 l 954 878 b 619 911 839 904 738 911 b 72 464 324 911 72 750 b 629 -21 72 140 297 -21 b 964 31 743 -21 857 -6 l 964 243 b 994 346 964 276 964 342 b 1003 372 997 357 999 363 z "},"H":{"ha":1026,"x_min":0,"x_max":0,"o":"m 1014 28 l 994 28 b 892 236 897 28 892 158 l 892 664 b 942 867 892 788 896 867 b 951 900 947 882 950 888 l 667 899 l 654 864 b 669 865 660 864 664 865 b 742 822 701 865 732 853 b 756 618 754 782 756 688 l 756 501 l 279 501 l 279 657 b 278 726 279 672 278 699 b 325 863 278 788 285 860 b 336 900 331 878 333 888 l 43 899 l 32 864 l 43 864 b 124 821 76 864 111 853 b 146 601 142 774 146 683 b 144 479 146 554 144 511 l 144 350 b 147 221 144 325 147 275 b 97 28 147 129 139 28 b 92 0 94 15 94 11 l 397 -1 l 404 33 l 385 33 b 279 208 286 33 279 133 l 279 449 l 756 449 l 756 154 b 708 28 756 122 753 28 b 703 0 704 17 706 10 l 1008 0 z "},"I":{"ha":461,"x_min":0,"x_max":0,"o":"m 431 36 l 397 36 b 296 208 303 36 296 133 l 296 636 b 294 707 296 654 294 679 b 365 868 294 779 303 868 b 375 900 369 882 369 889 l 67 899 l 57 865 l 63 865 b 147 821 97 865 133 854 b 165 625 163 786 165 703 b 164 507 165 579 164 536 l 164 383 b 88 31 164 321 163 31 b 82 0 83 19 83 10 l 422 6 z "},"J":{"ha":493,"x_min":0,"x_max":0,"o":"m 397 894 l 90 894 l 74 861 b 215 731 183 861 215 835 l 215 81 b 217 -19 215 46 217 11 b 125 -181 217 -107 206 -172 l 118 -181 b -14 -110 69 -181 17 -143 l -14 -224 b 85 -236 18 -232 51 -236 b 110 -235 93 -236 101 -235 b 358 83 267 -226 358 -128 l 358 750 b 386 860 358 786 358 858 b 397 894 392 872 394 882 z "},"K":{"ha":963,"x_min":0,"x_max":0,"o":"m 963 28 b 903 50 963 28 918 36 b 464 524 749 192 464 524 b 869 853 464 524 722 749 b 922 865 885 864 913 865 l 925 865 l 929 899 l 632 899 b 618 864 632 899 625 883 b 678 819 618 864 678 851 b 665 792 678 811 675 803 b 301 475 560 668 301 475 b 674 81 301 475 569 203 b 682 60 681 72 682 65 b 651 28 682 39 651 28 l 640 0 l 947 0 z m 419 35 l 396 35 b 306 76 356 35 332 38 b 281 268 283 111 281 224 l 281 586 b 279 665 281 604 279 633 b 339 861 279 742 288 838 b 347 899 346 876 339 889 l 49 900 l 33 864 b 58 867 42 865 50 867 b 128 826 88 867 118 856 b 146 643 146 775 146 697 l 146 383 b 147 276 146 364 147 324 b 92 28 147 169 140 28 b 85 0 89 19 86 8 l 411 0 z "},"L":{"ha":743,"x_min":0,"x_max":0,"o":"m 728 219 l 690 222 b 485 51 668 121 604 51 l 417 51 b 279 200 293 51 279 114 b 281 272 279 222 281 247 l 281 622 b 343 867 281 706 285 867 b 353 899 349 882 350 889 l 31 899 l 22 865 l 38 865 b 142 722 132 865 142 793 l 142 204 b 78 28 142 92 115 28 b 71 0 74 17 72 8 l 696 0 z "},"M":{"ha":1251,"x_min":0,"x_max":0,"o":"m 1231 35 l 1224 35 b 1108 226 1121 35 1113 157 l 1085 707 b 1082 782 1083 732 1082 757 l 1082 803 b 1118 872 1082 832 1085 869 b 1125 899 1122 885 1122 888 l 922 900 l 633 167 b 419 685 563 340 492 513 b 351 900 396 739 357 843 l 58 900 l 51 865 b 65 867 56 865 61 867 b 154 701 149 867 154 769 l 154 664 b 36 28 154 553 125 28 b 29 0 31 17 31 11 l 313 0 l 324 33 b 189 224 196 39 189 128 b 192 288 189 244 190 267 l 225 785 l 560 -4 l 633 -4 l 942 779 l 969 233 b 971 186 971 218 971 203 l 971 169 b 925 32 971 118 968 32 b 915 0 921 21 919 10 l 1219 0 z "},"N":{"ha":1053,"x_min":0,"x_max":0,"o":"m 1008 900 l 731 900 l 714 865 b 832 813 758 865 814 853 b 860 433 858 750 860 532 l 860 194 l 510 610 b 313 899 453 676 339 828 l 39 900 l 25 865 l 38 865 b 149 651 143 865 149 731 l 149 521 b 67 32 149 342 142 32 b 60 0 63 18 63 8 l 358 0 l 367 35 b 214 254 229 35 214 157 l 214 758 l 656 224 b 815 0 697 174 806 56 l 925 0 l 925 475 b 999 865 925 601 931 864 b 1008 899 1003 882 1003 888 z "},"O":{"ha":1149,"x_min":0,"x_max":0,"o":"m 1074 447 b 588 903 1074 731 889 903 b 71 451 290 903 71 732 b 564 -18 71 181 264 -18 b 1074 447 863 -18 1074 169 z m 924 397 b 596 38 924 201 828 38 b 215 511 333 38 215 303 b 564 851 215 722 326 851 b 924 397 826 851 924 608 z "},"P":{"ha":794,"x_min":0,"x_max":0,"o":"m 756 664 b 386 900 756 878 547 900 l 43 900 l 29 864 b 44 865 35 864 40 865 b 142 699 140 865 142 767 l 142 244 b 94 28 142 158 138 28 b 86 0 89 15 90 11 l 424 0 l 432 31 l 401 31 b 282 233 288 31 282 150 l 282 843 b 382 853 317 846 347 853 b 606 654 519 853 606 782 b 369 440 606 515 515 440 b 325 443 356 440 340 440 l 342 408 b 414 403 367 404 389 403 b 756 664 583 403 756 494 z "},"Q":{"ha":1147,"x_min":0,"x_max":0,"o":"m 1532 -149 l 1521 -122 b 1304 -222 1469 -186 1392 -222 b 1150 -199 1250 -222 1200 -215 b 1040 -151 1111 -186 1076 -167 b 664 -6 919 -99 793 -37 b 1099 461 913 38 1099 226 b 590 907 1099 740 890 907 b 54 457 294 907 54 738 b 521 -11 54 203 236 4 b 357 -136 438 -31 386 -61 l 379 -151 b 526 -76 401 -104 474 -76 b 1236 -339 768 -76 979 -339 b 1532 -149 1349 -339 1493 -247 z m 950 410 b 596 43 950 213 826 43 b 200 517 332 43 200 310 b 568 856 200 728 331 856 b 950 410 829 856 950 621 z "},"R":{"ha":947,"x_min":0,"x_max":0,"o":"m 953 32 b 897 46 933 32 914 36 b 543 472 824 90 597 401 b 729 682 643 513 729 575 b 393 901 729 883 565 901 l 47 901 l 33 865 b 47 867 39 865 43 867 b 146 692 144 867 146 760 l 146 321 b 147 226 146 306 147 268 b 92 28 147 142 140 36 b 83 0 88 15 85 11 l 422 0 l 431 35 l 400 35 b 281 260 282 35 281 175 l 281 413 l 422 413 l 722 -3 l 943 -3 z m 586 664 b 368 464 586 532 511 464 b 281 472 338 464 310 465 l 281 849 b 375 854 314 851 342 854 b 586 664 507 854 586 785 z "},"S":{"ha":731,"x_min":0,"x_max":0,"o":"m 646 268 b 228 711 639 561 228 496 b 394 864 228 797 300 864 b 583 694 503 864 582 792 l 625 704 l 625 889 b 419 913 557 899 489 913 b 99 665 257 913 100 831 l 99 664 b 507 215 99 379 507 467 b 317 44 507 108 436 44 b 106 222 203 44 106 115 l 106 232 l 58 221 l 58 25 b 286 -12 135 4 206 -12 b 646 258 481 -12 646 69 z "},"T":{"ha":829,"x_min":0,"x_max":0,"o":"m 831 897 l 28 897 l 1 706 l 43 701 b 201 850 54 788 97 849 l 292 851 b 342 813 326 851 336 840 b 350 703 349 776 350 740 b 349 621 350 675 349 647 l 349 458 b 339 71 349 322 347 167 b 289 32 338 57 308 32 b 281 0 286 21 285 13 l 617 0 l 628 35 b 492 213 500 35 492 124 l 492 851 l 639 849 b 772 726 724 847 772 801 b 769 696 772 715 771 706 l 814 700 b 831 897 819 765 825 832 z "},"U":{"ha":1028,"x_min":0,"x_max":0,"o":"m 958 900 l 671 900 l 661 865 l 681 865 b 822 697 796 865 822 796 l 822 297 b 563 72 822 151 718 72 b 279 294 386 72 279 119 l 279 768 b 333 867 279 799 290 865 b 343 899 339 881 338 888 l 43 900 l 29 865 l 39 865 b 136 701 136 865 136 767 l 136 272 b 526 -12 136 56 317 -12 b 892 276 722 -12 892 85 l 892 717 b 946 863 892 779 904 863 b 958 899 949 878 951 882 z "},"V":{"ha":890,"x_min":0,"x_max":0,"o":"m 925 900 l 644 900 l 631 865 b 728 790 693 865 728 856 b 503 175 728 631 578 321 l 274 733 b 249 819 258 772 249 778 b 282 854 249 828 268 850 b 289 896 285 871 285 886 l 10 900 l -4 867 b 110 757 71 861 88 811 l 375 118 b 411 1 385 96 411 21 l 411 -4 l 533 -4 b 568 122 539 39 551 82 l 833 783 b 911 860 839 799 869 856 b 925 899 917 876 918 886 z "},"W":{"ha":1354,"x_min":0,"x_max":0,"o":"m 1071 863 b 1171 783 1138 863 1171 853 b 950 153 1171 611 1028 308 l 775 731 b 756 814 764 767 756 786 b 793 861 756 835 765 857 b 808 899 800 878 806 890 l 515 897 l 499 864 b 656 647 615 857 629 726 b 476 151 619 476 549 313 l 263 731 b 238 818 251 763 238 785 b 281 861 238 826 250 857 b 293 899 288 878 290 890 l 3 897 l -12 864 b 111 754 63 858 89 814 l 350 115 b 389 -6 360 90 389 19 l 389 -7 l 513 -7 b 546 122 519 36 532 81 b 690 533 594 260 642 396 l 829 115 b 871 -6 838 92 871 17 l 871 -7 l 986 -7 b 1018 119 993 33 1003 82 l 1279 781 b 1360 861 1286 799 1324 854 b 1371 897 1364 875 1367 883 l 1085 897 z m 1372 897 l 1371 897 b 1372 899 1371 897 1372 897 z "},"X":{"ha":975,"x_min":0,"x_max":0,"o":"m 990 33 b 879 89 939 40 910 51 l 544 503 l 831 818 b 908 863 846 835 863 858 b 921 899 915 881 915 881 l 639 899 l 621 864 b 697 811 660 864 697 854 b 663 738 697 781 682 761 l 508 550 l 314 797 b 301 832 307 807 301 819 b 325 867 301 846 308 860 b 336 899 333 885 333 888 l 25 899 l 8 865 b 156 769 74 856 118 815 l 414 451 b 142 156 324 353 232 254 b 15 33 108 119 60 33 l 14 33 b -1 0 7 18 6 11 l 326 -1 l 339 33 b 243 108 289 39 243 56 b 279 193 243 139 260 168 l 449 407 l 674 115 b 694 74 694 88 689 89 b 697 58 696 68 697 63 b 675 28 697 42 688 28 b 665 0 669 13 667 3 l 978 -1 z "},"Y":{"ha":828,"x_min":0,"x_max":0,"o":"m 835 900 l 563 900 l 547 865 b 632 794 603 865 632 853 b 600 693 632 761 618 722 l 453 464 l 254 768 b 222 819 239 792 233 797 b 218 833 219 824 218 829 b 257 868 218 850 236 864 b 265 899 261 882 264 894 l -1 900 l -18 865 b 92 776 36 865 67 814 l 350 383 l 350 147 b 308 32 350 113 339 32 b 299 0 304 21 301 14 l 581 0 l 594 35 l 581 35 b 486 161 496 35 486 94 l 486 415 l 739 794 b 825 868 757 821 792 868 b 835 900 831 883 831 888 z "},"Z":{"ha":843,"x_min":0,"x_max":0,"o":"m 813 267 l 771 274 b 547 56 740 174 681 56 l 433 56 b 225 74 364 56 293 63 l 765 901 l 76 901 l 50 683 l 94 671 b 324 850 119 801 178 850 l 582 850 l -8 1 l 782 1 z "},"[":{"ha":476,"x_min":0,"x_max":0,"o":"m 385 -321 l 385 -287 b 232 -289 333 -289 283 -289 b 233 -218 233 -265 233 -242 b 232 -75 233 -171 232 -122 l 232 338 b 231 724 232 465 231 594 b 233 981 231 810 231 894 l 385 981 l 385 1013 l 129 1013 l 129 -321 z "},"\\":{"ha":701,"x_min":0,"x_max":0,"o":"m 757 -136 l 50 1028 l -10 993 l 700 -175 z "},"]":{"ha":476,"x_min":0,"x_max":0,"o":"m 356 -321 l 356 1013 l 106 1013 l 106 981 l 258 981 l 258 892 b 257 -210 258 525 257 158 l 257 -289 l 233 -289 b 106 -287 192 -289 149 -287 l 106 -321 z "},"^":{"ha":690,"x_min":0,"x_max":0,"o":"m 638 608 l 375 954 l 331 954 l 50 608 l 90 575 l 351 861 l 597 579 z "},"_":{"ha":722,"x_min":0,"x_max":0,"o":"m 722 -167 l 722 -106 l 0 -106 l 0 -167 z "},"`":{"ha":363,"x_min":0,"x_max":0,"o":"m 299 714 l 128 917 b 103 932 121 924 113 932 b 46 889 88 932 46 906 b 68 860 46 876 60 867 l 278 699 z "},"a":{"ha":854,"x_min":0,"x_max":0,"o":"m 825 32 b 711 138 763 32 729 99 b 561 486 657 254 613 369 b 486 676 538 539 497 621 l 321 676 b 331 633 329 664 331 646 b 297 506 331 589 315 547 l 178 219 b 38 29 158 172 99 36 b 49 3 39 21 47 10 l 272 3 l 281 29 l 271 29 b 206 86 231 29 206 44 b 265 283 206 153 243 224 l 508 283 l 572 126 b 582 76 578 113 582 94 b 551 29 582 53 574 31 b 547 3 551 29 550 13 l 818 3 z m 486 335 l 283 335 l 376 576 z "},"b":{"ha":736,"x_min":0,"x_max":0,"o":"m 679 200 l 679 203 b 417 376 679 357 429 375 b 608 550 433 381 608 422 b 393 676 608 669 436 676 l 63 676 l 60 643 b 81 646 60 643 69 646 b 110 639 90 646 101 644 b 142 579 135 624 142 608 l 142 92 b 104 28 142 46 104 28 l 99 3 l 424 3 b 679 200 451 3 675 8 z m 540 197 b 371 43 540 99 490 43 b 274 136 297 43 274 78 l 274 350 l 300 350 b 540 197 368 350 540 339 z m 472 526 l 472 524 b 303 385 472 403 358 385 b 274 388 288 385 276 386 l 274 636 b 329 642 274 636 297 642 b 472 526 388 642 471 624 z "},"c":{"ha":832,"x_min":0,"x_max":0,"o":"m 761 113 b 571 49 707 71 636 49 b 222 378 344 49 222 185 b 479 644 222 535 301 644 b 701 494 586 644 689 601 l 753 503 l 753 660 b 496 689 689 681 563 689 b 79 347 275 689 79 564 l 79 344 b 481 -8 79 128 246 -8 b 742 29 554 -8 674 1 z "},"d":{"ha":910,"x_min":0,"x_max":0,"o":"m 843 381 b 418 676 843 617 638 676 l 69 676 l 54 647 l 65 647 b 138 618 93 647 128 642 b 144 479 144 601 144 503 l 144 219 b 146 151 144 206 146 179 b 111 28 146 94 140 28 b 104 1 110 18 107 8 l 433 1 b 843 381 682 1 843 157 z m 700 336 b 429 39 700 164 631 39 l 408 39 b 275 129 333 39 275 43 l 275 638 b 332 639 293 639 313 639 l 389 639 b 700 336 621 639 700 557 z "},"e":{"ha":694,"x_min":0,"x_max":0,"o":"m 646 160 l 600 167 b 508 44 600 167 582 53 b 447 40 488 42 467 40 b 357 43 415 40 385 43 b 272 143 304 44 272 96 l 272 340 b 469 339 272 340 392 339 b 540 272 508 339 540 272 l 569 281 l 569 440 l 532 438 b 478 379 532 438 510 381 l 272 379 l 274 635 b 396 640 274 635 336 640 b 486 632 431 640 467 639 b 557 529 525 618 557 529 l 597 538 l 597 676 l 57 676 l 53 647 b 61 649 53 647 56 649 b 97 640 68 649 82 647 b 143 581 128 628 143 594 b 142 99 143 389 142 279 b 101 26 142 67 132 26 b 97 3 100 14 97 3 l 622 1 z "},"f":{"ha":639,"x_min":0,"x_max":0,"o":"m 582 539 l 582 678 l 53 676 b 49 647 53 668 51 654 l 67 647 b 117 632 86 647 104 646 b 143 517 142 606 143 554 l 143 272 b 144 203 143 257 144 232 b 101 28 144 126 139 28 b 97 10 97 18 97 14 l 97 0 l 386 0 l 390 32 l 372 32 b 310 51 349 32 328 33 b 275 229 276 83 275 188 l 275 336 l 381 336 b 508 269 442 336 494 335 l 540 279 l 540 451 l 504 443 l 504 438 b 483 397 504 422 494 407 b 403 381 471 382 433 381 l 275 381 l 275 636 b 360 639 303 638 332 639 b 538 531 457 639 535 636 z "},"g":{"ha":876,"x_min":0,"x_max":0,"o":"m 811 281 l 536 281 l 525 250 b 651 172 600 250 651 250 l 651 56 b 533 29 624 38 568 29 b 224 388 310 29 224 196 b 506 644 224 551 328 644 b 724 501 614 644 706 608 l 778 508 l 778 660 b 501 685 692 681 589 685 b 79 353 279 685 79 568 b 508 -14 79 111 258 -14 b 782 24 593 -14 703 -3 l 782 183 b 806 254 782 208 782 251 b 811 281 808 264 808 274 z "},"h":{"ha":892,"x_min":0,"x_max":0,"o":"m 840 33 l 825 33 b 746 189 749 33 746 133 l 746 501 b 783 649 746 593 749 649 b 792 678 788 660 790 668 l 546 676 l 539 647 l 550 647 b 603 618 574 647 596 640 b 613 465 613 588 613 518 l 613 421 l 614 381 l 276 381 l 276 496 b 275 550 276 507 275 528 b 311 650 275 596 281 649 b 319 678 314 663 317 669 l 69 676 l 58 649 l 68 649 b 128 617 93 649 118 640 b 144 457 142 582 144 517 b 143 360 144 419 143 385 l 143 264 b 144 172 143 246 144 210 b 107 28 144 104 139 28 b 103 1 106 18 106 10 l 364 1 l 371 33 l 357 33 b 276 163 282 33 276 107 l 276 338 l 613 338 l 613 117 b 576 28 613 93 610 28 b 572 1 572 18 575 8 l 833 3 z "},"i":{"ha":418,"x_min":0,"x_max":0,"o":"m 381 35 l 357 35 b 279 161 285 35 279 107 l 279 478 b 278 529 279 490 278 510 b 332 643 278 581 285 643 b 339 676 336 653 336 669 l 74 675 l 65 643 l 71 643 b 133 610 97 643 122 635 b 147 471 144 585 147 526 b 146 382 147 438 146 404 l 146 289 b 90 35 146 242 146 35 b 85 1 86 26 86 8 l 374 1 z "},"j":{"ha":431,"x_min":0,"x_max":0,"o":"m 317 678 l 63 678 l 51 646 b 156 553 133 646 156 631 l 156 65 b 157 -22 156 35 157 6 b 90 -132 157 -85 149 -132 b -14 -57 29 -132 10 -83 l -17 -164 b 78 -175 14 -172 46 -175 b 288 69 226 -175 288 -89 l 288 569 b 311 647 288 596 290 646 b 317 678 315 657 314 668 z "},"k":{"ha":836,"x_min":0,"x_max":0,"o":"m 381 29 l 364 29 b 296 60 333 29 315 31 b 276 204 279 86 276 171 l 276 443 b 275 500 276 456 275 476 b 321 649 275 557 281 631 b 333 679 325 661 328 671 l 72 676 l 67 647 b 86 650 74 649 79 650 b 132 621 106 650 125 642 b 146 483 146 582 146 524 l 146 289 b 147 210 146 274 147 244 b 106 28 147 131 142 28 b 100 1 103 21 101 7 l 375 3 z m 806 32 l 794 32 b 761 39 783 32 768 33 b 422 399 646 146 422 399 b 728 642 422 399 618 563 b 758 649 735 647 747 649 b 775 647 767 649 775 647 l 772 675 l 540 676 b 529 649 540 676 533 664 b 575 617 529 649 575 640 b 565 597 575 611 572 604 b 293 358 486 504 293 358 b 553 61 293 358 475 154 b 560 47 557 56 560 51 b 533 28 560 33 533 28 l 528 1 l 794 1 z "},"l":{"ha":668,"x_min":0,"x_max":0,"o":"m 628 165 l 581 167 b 428 43 565 90 517 43 l 376 43 b 274 151 282 43 274 88 l 274 458 b 322 647 274 517 276 646 b 326 676 326 658 325 669 l 58 675 l 53 647 l 67 647 b 142 543 136 647 142 596 l 142 503 b 143 233 142 458 143 342 l 143 156 b 94 28 143 71 121 28 b 89 1 90 19 90 7 l 604 1 z "},"m":{"ha":1047,"x_min":0,"x_max":0,"o":"m 1004 29 l 999 29 b 911 168 922 29 914 117 l 893 528 b 892 585 892 547 892 565 b 890 610 892 592 890 601 b 915 646 890 626 894 644 b 918 676 918 654 918 647 l 743 676 l 544 164 b 397 515 492 294 451 386 b 342 675 381 556 344 633 l 100 675 l 96 644 b 108 646 100 644 104 646 b 175 522 171 646 175 572 l 175 499 b 89 28 175 415 156 28 b 81 0 85 19 82 8 l 293 0 l 303 28 b 207 168 207 32 207 96 b 208 215 207 183 207 200 l 228 589 l 479 -3 l 535 -3 l 765 585 l 786 175 b 788 140 786 164 788 153 l 788 124 b 754 28 788 85 786 28 b 746 0 751 19 749 8 l 996 0 z "},"n":{"ha":947,"x_min":0,"x_max":0,"o":"m 868 675 l 653 675 l 640 647 b 729 611 674 647 715 642 b 750 332 749 565 750 410 l 750 182 l 486 478 b 347 676 442 528 367 624 l 92 676 l 83 646 l 92 646 b 178 485 174 646 178 543 l 178 413 b 114 26 178 283 174 26 b 113 15 113 22 113 18 l 113 0 l 343 0 l 351 32 b 236 192 249 32 236 119 l 236 569 l 581 182 b 711 1 614 144 704 43 l 806 1 l 806 328 b 864 647 806 400 807 646 b 865 663 865 653 865 658 b 868 675 865 667 865 671 z "},"o":{"ha":951,"x_min":0,"x_max":0,"o":"m 871 342 b 479 688 871 554 707 688 b 75 346 257 688 75 556 b 464 -6 75 143 239 -6 b 871 342 688 -6 871 133 z m 721 311 b 492 39 721 165 644 39 l 486 39 b 218 386 306 42 218 231 b 468 643 218 544 301 643 l 471 643 b 721 311 650 643 721 469 z "},"p":{"ha":713,"x_min":0,"x_max":0,"o":"m 657 500 b 349 676 657 667 472 676 l 69 676 l 58 647 l 69 647 b 143 524 142 647 143 574 l 143 217 b 104 32 143 161 140 32 b 103 19 103 28 103 24 b 101 1 103 13 103 7 l 379 1 l 392 32 l 368 32 b 274 197 274 32 274 135 l 274 635 b 349 636 299 636 324 636 b 507 497 451 636 507 593 b 339 332 507 393 447 332 b 306 335 329 332 317 332 l 318 301 b 371 297 336 299 353 297 b 657 500 499 297 657 374 z "},"q":{"ha":956,"x_min":0,"x_max":0,"o":"m 965 -81 l 942 -57 b 807 -136 903 -104 872 -136 b 694 -117 767 -136 733 -129 b 607 -71 667 -107 633 -85 b 475 -6 554 -44 521 -21 b 871 342 693 -1 871 136 b 479 688 871 554 707 688 b 75 346 257 688 75 556 b 344 10 75 181 183 51 b 218 -101 289 -6 238 -54 l 242 -121 b 346 -57 257 -86 306 -57 b 750 -233 526 -57 558 -233 b 965 -81 836 -233 936 -154 z m 721 311 b 492 39 718 165 644 39 l 486 39 b 218 386 306 42 218 231 b 465 643 218 543 301 643 l 468 643 b 721 317 664 640 721 460 z "},"r":{"ha":807,"x_min":0,"x_max":0,"o":"m 781 32 b 758 31 772 32 765 31 b 738 36 751 31 743 32 b 488 358 682 69 528 306 b 638 513 563 378 638 432 b 343 678 638 669 478 678 l 67 678 l 57 647 l 68 647 b 146 515 143 647 146 567 l 146 242 b 147 189 146 232 147 213 b 103 28 147 125 142 33 b 99 1 99 18 100 10 l 382 1 l 386 32 l 363 32 b 276 197 272 32 278 135 l 275 311 l 367 311 l 578 1 l 774 1 z m 499 501 b 340 349 499 403 447 349 b 276 354 317 349 299 350 l 276 636 b 300 638 285 638 293 638 b 344 636 315 638 328 636 b 499 501 443 636 499 592 z "},"s":{"ha":638,"x_min":0,"x_max":0,"o":"m 565 206 b 215 540 565 451 215 392 l 215 542 b 347 647 215 606 276 647 b 490 524 428 647 489 596 l 546 533 l 546 672 b 367 688 494 679 419 688 b 93 506 244 688 93 644 b 440 167 93 260 440 346 l 440 165 b 286 43 440 85 376 43 b 124 175 201 43 124 94 l 124 182 l 68 172 l 68 25 b 267 -6 125 10 206 -6 b 565 206 414 -6 565 43 z "},"t":{"ha":726,"x_min":0,"x_max":0,"o":"m 694 676 l 47 676 l 29 532 l 79 528 b 199 638 88 593 121 636 l 258 639 b 296 610 285 639 293 631 b 301 468 300 565 301 515 l 301 376 b 293 56 301 253 300 88 b 254 29 290 46 268 29 b 250 3 253 21 253 13 l 525 1 l 529 33 b 431 153 439 33 431 90 l 431 638 l 536 638 b 636 549 599 638 636 604 b 633 525 636 540 635 532 l 685 526 b 694 676 689 576 689 628 z "},"u":{"ha":850,"x_min":0,"x_max":0,"o":"m 774 678 l 547 678 l 539 647 l 554 647 b 663 526 640 647 663 600 l 663 226 b 469 67 663 117 586 67 b 272 225 338 67 272 93 l 272 581 b 314 647 272 603 281 646 b 321 678 318 658 317 669 l 71 676 l 61 647 l 69 647 b 140 533 139 647 140 582 l 140 206 b 443 -12 140 43 285 -12 b 722 206 589 -12 722 63 l 722 536 b 761 646 722 583 729 646 b 774 678 764 657 768 665 z "},"v":{"ha":790,"x_min":0,"x_max":0,"o":"m 764 679 l 550 679 l 540 650 b 614 593 588 650 614 643 b 446 132 614 474 501 242 l 274 551 b 254 615 261 581 254 585 b 282 649 254 621 271 646 b 286 678 283 663 283 669 l 42 679 l 31 649 b 115 568 86 644 99 610 l 315 89 b 343 1 322 72 343 17 l 343 -3 l 468 -3 b 497 92 472 31 485 61 l 696 589 b 754 646 700 600 724 643 b 764 679 758 658 758 669 z "},"w":{"ha":1215,"x_min":0,"x_max":0,"o":"m 1188 679 l 972 679 l 964 650 b 1038 593 1011 650 1038 643 b 868 132 1038 474 925 242 l 697 551 b 678 615 685 581 678 585 b 706 649 678 621 694 646 b 710 678 707 663 707 669 l 465 679 l 454 649 b 539 568 510 644 521 610 l 586 456 b 446 132 549 340 483 207 l 274 551 b 254 615 261 581 254 585 b 282 649 254 621 271 646 b 286 678 283 663 283 669 l 42 679 l 31 649 b 115 568 86 644 99 610 l 315 89 b 343 1 322 72 343 17 l 343 -3 l 468 -3 b 497 92 472 31 485 61 l 615 385 l 739 89 b 765 1 746 72 765 17 l 765 -3 l 892 -3 b 919 92 894 31 907 61 l 1119 589 b 1178 646 1124 600 1146 643 b 1188 679 1182 658 1182 669 z "},"x":{"ha":814,"x_min":0,"x_max":0,"o":"m 794 32 b 714 69 757 36 736 40 l 460 388 l 674 615 b 735 647 685 628 700 644 b 740 676 740 661 738 664 l 518 676 l 506 647 b 565 606 535 647 565 638 b 539 550 565 583 554 567 l 429 428 l 293 600 b 285 624 288 607 285 615 b 303 647 285 633 289 642 b 310 676 308 661 308 668 l 50 676 l 36 647 b 149 581 85 640 121 615 l 340 335 b 142 114 272 261 213 189 b 36 31 117 88 69 31 l 35 31 b 29 1 29 19 33 10 l 288 1 l 296 32 b 224 81 258 36 224 40 b 254 151 224 103 239 133 l 371 297 l 528 89 b 543 58 543 68 539 69 b 546 46 544 54 546 50 b 531 28 546 35 540 28 b 522 3 526 17 522 6 l 788 1 z "},"y":{"ha":722,"x_min":0,"x_max":0,"o":"m 697 676 l 493 676 l 481 647 b 544 597 522 647 544 640 b 518 524 544 572 533 546 l 413 367 l 274 578 b 247 625 263 596 256 608 b 246 632 246 628 246 631 b 281 647 246 643 264 643 b 285 678 285 657 283 674 l 40 676 l 29 647 b 110 585 71 647 92 613 l 303 289 l 303 113 b 274 28 303 86 296 28 b 265 1 271 19 268 13 l 506 1 l 518 32 l 506 32 b 435 122 444 32 435 72 l 435 313 l 625 597 b 690 647 639 617 665 647 b 697 676 693 658 694 667 z "},"z":{"ha":761,"x_min":0,"x_max":0,"o":"m 713 200 l 656 206 b 489 42 633 131 588 42 l 403 42 b 254 54 351 42 306 46 l 682 676 l 117 676 l 97 513 l 149 503 b 318 636 168 601 210 636 l 499 636 l 60 1 l 690 1 z "},"{":{"ha":476,"x_min":0,"x_max":0,"o":"m 418 -324 l 418 -290 b 376 -292 407 -290 392 -292 b 285 -233 333 -292 285 -283 b 289 119 285 -115 289 3 b 288 236 289 158 289 197 b 182 331 286 281 229 331 l 182 347 b 288 451 231 347 286 408 l 288 511 b 285 829 288 618 285 724 b 283 871 285 840 283 854 b 340 978 283 918 290 976 l 418 978 l 418 1010 l 374 1010 b 185 900 292 1010 185 1004 b 186 471 185 757 186 614 b 76 354 186 401 149 354 l 78 325 l 82 325 b 186 193 171 325 186 272 b 183 -215 186 57 183 -79 b 343 -325 183 -299 272 -325 b 418 -324 368 -325 393 -325 z "},"|":{"ha":344,"x_min":0,"x_max":0,"o":"m 213 994 l 151 994 l 151 -192 l 213 -192 z "},"}":{"ha":476,"x_min":0,"x_max":0,"o":"m 397 354 b 288 471 325 354 288 401 b 289 900 288 614 289 757 b 158 1018 289 961 219 1017 l 54 1019 l 54 988 l 132 988 b 189 876 183 986 189 925 l 189 839 b 185 521 189 733 185 628 b 186 461 185 501 185 481 b 292 347 188 418 243 347 l 292 331 b 186 246 246 331 188 290 l 185 190 l 185 146 b 190 -122 185 57 190 -33 b 192 -175 190 -137 192 -156 b 125 -281 192 -226 183 -281 l 54 -281 l 54 -314 b 129 -315 79 -315 104 -315 b 290 -215 200 -315 290 -299 b 286 119 290 -104 286 8 b 285 182 286 140 285 161 b 393 325 285 256 296 325 l 396 325 z "},"~":{"ha":725,"x_min":0,"x_max":0,"o":"m 685 785 l 667 819 b 493 739 617 760 563 739 b 251 844 400 739 376 844 b 44 685 169 844 86 756 l 64 651 b 242 744 117 707 164 744 b 499 647 369 744 396 647 b 685 785 571 647 646 714 z "},"À":{"ha":1008,"x_min":0,"x_max":0,"o":"m 1008 28 b 854 181 925 28 878 129 b 643 647 782 336 711 492 b 536 900 613 718 554 828 l 372 900 b 386 838 383 883 386 856 b 344 668 386 779 368 722 l 179 289 b -3 28 151 226 79 38 b 6 0 0 18 4 10 l 304 0 l 311 28 l 303 28 b 215 111 246 28 215 56 b 294 379 215 200 265 300 l 614 379 l 704 165 b 718 93 713 147 718 119 b 679 28 718 60 708 31 l 671 0 l 1003 0 z m 590 443 l 319 443 l 443 765 z m 458 967 l 288 1169 b 263 1185 281 1176 272 1185 b 206 1142 247 1185 206 1158 b 228 1113 206 1129 219 1119 l 438 951 z "},"Á":{"ha":1008,"x_min":0,"x_max":0,"o":"m 1008 28 b 854 181 925 28 878 129 b 643 647 782 336 711 492 b 536 900 613 718 554 828 l 372 900 b 386 838 383 883 386 856 b 344 668 386 779 368 722 l 179 289 b -3 28 151 226 79 38 b 6 0 0 18 4 10 l 304 0 l 311 28 l 303 28 b 215 111 246 28 215 56 b 294 379 215 200 265 300 l 614 379 l 704 165 b 718 93 713 147 718 119 b 679 28 718 60 708 31 l 671 0 l 1003 0 z m 590 443 l 319 443 l 443 765 z m 679 1117 b 622 1165 679 1132 639 1165 b 597 1150 610 1165 604 1157 l 396 968 l 418 951 l 654 1090 b 679 1117 664 1096 679 1104 z "},"Â":{"ha":1008,"x_min":0,"x_max":0,"o":"m 1008 28 b 854 181 925 28 878 129 b 643 647 782 336 711 492 b 536 900 613 718 554 828 l 372 900 b 386 838 383 883 386 856 b 344 668 386 779 368 722 l 179 289 b -3 28 151 226 79 38 b 6 0 0 18 4 10 l 304 0 l 311 28 l 303 28 b 215 111 246 28 215 56 b 294 379 215 200 265 300 l 614 379 l 704 165 b 718 93 713 147 718 119 b 679 28 718 60 708 31 l 671 0 l 1003 0 z m 590 443 l 319 443 l 443 765 z m 653 983 l 471 1160 l 440 1160 l 256 988 l 286 968 l 456 1089 l 622 964 z "},"Ã":{"ha":1008,"x_min":0,"x_max":0,"o":"m 1008 28 b 854 181 925 28 878 129 b 643 647 782 336 711 492 b 536 900 613 718 554 828 l 372 900 b 386 838 383 883 386 856 b 344 668 386 779 368 722 l 179 289 b -3 28 151 226 79 38 b 6 0 0 18 4 10 l 304 0 l 311 28 l 303 28 b 215 111 246 28 215 56 b 294 379 215 200 265 300 l 614 379 l 704 165 b 718 93 713 147 718 119 b 679 28 718 60 708 31 l 671 0 l 1003 0 z m 590 443 l 319 443 l 443 765 z m 690 1086 l 678 1111 b 547 1051 640 1081 597 1051 b 357 1129 481 1051 447 1129 b 196 1007 299 1129 231 1049 l 208 988 b 350 1057 250 1019 294 1057 b 551 986 440 1057 478 986 b 690 1086 603 986 660 1050 z "},"Ä":{"ha":1008,"x_min":0,"x_max":0,"o":"m 1008 28 b 854 181 925 28 878 129 b 643 647 782 336 711 492 b 536 900 613 718 554 828 l 372 900 b 386 838 383 883 386 856 b 344 668 386 779 368 722 l 179 289 b -3 28 151 226 79 38 b 6 0 0 18 4 10 l 304 0 l 311 28 l 303 28 b 215 111 246 28 215 56 b 294 379 215 200 265 300 l 614 379 l 704 165 b 718 93 713 147 718 119 b 679 28 718 60 708 31 l 671 0 l 1003 0 z m 590 443 l 319 443 l 443 765 z m 656 1042 b 589 1103 656 1075 625 1103 b 519 1042 551 1103 519 1075 b 589 982 519 1008 551 982 b 656 1042 625 982 656 1008 z m 385 1042 b 318 1103 385 1075 354 1103 b 250 1042 281 1103 250 1075 b 318 982 250 1008 281 982 b 385 1042 354 982 385 1008 z "},"Å":{"ha":1008,"x_min":0,"x_max":0,"o":"m 1008 28 b 854 181 925 28 878 129 b 643 647 782 336 711 492 b 539 885 613 718 539 885 b 614 1003 582 911 614 954 b 458 1149 614 1083 546 1149 b 299 1006 372 1149 299 1085 b 382 882 299 958 332 894 b 386 838 382 882 386 856 b 344 668 386 779 368 722 l 179 289 b -3 28 151 226 79 38 b 6 0 0 18 4 10 l 304 0 l 311 28 l 303 28 b 215 111 246 28 215 56 b 294 379 215 200 265 300 l 614 379 l 704 165 b 718 93 713 147 718 119 b 679 28 718 60 708 31 l 671 0 l 1003 0 z m 590 443 l 319 443 l 443 765 z m 572 1003 b 478 899 572 950 524 899 l 476 899 l 438 900 b 343 999 388 908 343 950 b 456 1108 343 1057 390 1108 b 572 1003 521 1108 572 1061 z "},"Æ":{"ha":1283,"x_min":0,"x_max":0,"o":"m 1208 217 l 1165 219 b 951 50 1151 106 1078 50 l 867 50 b 753 97 826 50 769 61 b 733 265 735 135 733 207 l 733 450 l 917 450 b 1076 361 990 450 1058 443 l 1104 371 l 1104 589 l 1072 586 l 1072 581 b 1044 525 1072 560 1058 540 b 940 503 1025 504 976 503 l 733 503 l 733 851 b 851 857 771 856 811 857 b 1090 703 979 857 1086 847 l 1129 714 l 1129 900 l 346 901 b 338 869 344 890 342 879 b 428 774 394 869 428 821 b 375 640 428 725 401 682 l 158 289 b -72 28 119 226 13 38 b -69 0 -72 19 -69 10 l 229 0 l 244 35 l 238 35 b 158 89 197 35 158 47 b 292 379 158 167 260 322 l 597 381 l 597 315 b 558 0 597 225 596 69 l 1181 0 z m 600 850 l 600 443 l 326 443 l 563 850 z "},"Ç":{"ha":994,"x_min":0,"x_max":0,"o":"m 911 132 b 651 56 840 83 742 56 b 233 504 371 56 233 269 b 582 849 233 704 353 849 b 847 654 718 849 847 794 l 900 668 l 900 886 b 603 913 799 907 707 913 b 78 454 308 913 78 728 b 525 -21 78 206 239 -7 b 444 -139 508 -43 444 -114 b 524 -239 444 -179 524 -208 b 411 -304 524 -287 454 -304 l 406 -304 l 407 -340 b 436 -342 417 -342 428 -342 b 632 -239 494 -342 632 -308 b 521 -106 632 -168 521 -171 b 576 -21 521 -79 560 -42 b 893 39 701 -18 779 -1 z "},"Ð":{"ha":1093,"x_min":0,"x_max":0,"o":"m 1025 500 b 471 900 1025 815 764 900 l 43 900 l 29 867 l 38 867 b 133 822 75 867 119 857 b 142 638 142 800 142 668 l 142 486 l 57 486 l 35 433 l 142 433 l 142 290 b 143 204 142 272 143 240 b 96 32 143 126 136 33 b 89 0 94 19 92 8 l 492 0 b 1025 500 822 0 1025 201 z m 872 446 b 490 44 872 217 760 44 b 281 171 378 44 281 46 l 281 436 l 410 436 l 425 489 l 281 489 l 281 849 b 431 856 329 853 381 856 b 872 446 740 856 872 740 z "},"È":{"ha":781,"x_min":0,"x_max":0,"o":"m 81 858 b 142 779 119 843 142 797 l 142 129 b 88 33 142 88 128 33 l 82 0 l 728 0 l 757 213 l 703 219 b 575 58 703 219 672 71 b 443 51 524 53 483 51 l 392 51 b 281 190 324 53 281 126 l 281 453 l 536 453 b 629 363 586 453 629 363 l 656 374 l 656 588 l 618 583 b 547 506 618 583 589 507 b 431 504 513 504 469 504 b 281 506 351 504 281 506 l 281 854 b 375 857 281 854 322 857 b 546 840 435 857 507 854 b 639 704 597 824 639 704 l 675 715 l 675 899 l 28 899 b 22 869 28 899 25 882 z m 415 969 l 228 1172 b 200 1189 221 1181 211 1189 b 138 1146 183 1189 138 1161 b 163 1115 138 1133 153 1122 l 393 954 z "},"É":{"ha":758,"x_min":0,"x_max":0,"o":"m 81 858 b 142 779 119 842 142 797 l 142 129 b 88 33 142 86 128 33 b 82 0 85 15 82 0 l 728 0 l 757 211 l 703 219 b 575 57 703 219 672 69 b 458 50 531 51 494 50 b 392 51 436 50 415 51 b 281 189 324 53 281 126 l 281 451 l 536 451 b 629 361 586 451 629 361 l 656 374 l 656 588 l 618 583 b 547 504 618 583 589 506 b 431 503 513 503 469 503 b 281 504 351 503 281 504 l 281 853 b 381 856 281 853 326 856 b 546 840 439 856 508 853 b 639 704 597 824 639 704 l 675 714 l 675 899 l 28 899 b 22 868 28 899 25 881 z m 611 1119 b 556 1168 611 1135 572 1168 b 529 1153 543 1168 536 1160 l 329 971 l 350 954 l 588 1093 b 611 1119 596 1099 611 1108 z "},"Ê":{"ha":781,"x_min":0,"x_max":0,"o":"m 81 858 b 142 779 119 842 142 797 l 142 129 b 88 33 142 86 128 33 b 82 0 85 15 82 0 l 728 0 l 757 211 l 703 219 b 575 57 703 219 672 69 b 458 50 531 51 494 50 b 392 51 436 50 415 51 b 281 189 324 53 281 126 l 281 451 l 536 451 b 629 361 586 451 629 361 l 656 374 l 656 588 l 618 583 b 547 504 618 583 589 506 b 431 503 513 503 469 503 b 281 504 351 503 281 504 l 281 853 b 381 856 281 853 326 856 b 546 840 439 856 508 853 b 639 704 597 824 639 704 l 675 714 l 675 899 l 28 899 b 22 868 28 899 25 881 z m 564 976 l 382 1153 l 351 1153 l 167 981 l 197 961 l 367 1082 l 533 957 z "},"Ë":{"ha":781,"x_min":0,"x_max":0,"o":"m 81 858 b 142 779 119 842 142 797 l 142 129 b 88 33 142 86 128 33 b 82 0 85 15 82 0 l 728 0 l 757 211 l 703 219 b 575 57 703 219 672 69 b 458 50 531 51 494 50 b 392 51 436 50 415 51 b 281 189 324 53 281 126 l 281 451 l 536 451 b 629 361 586 451 629 361 l 656 374 l 656 588 l 618 583 b 547 504 618 583 589 506 b 431 503 513 503 469 503 b 281 504 351 503 281 504 l 281 853 b 381 856 281 853 326 856 b 546 840 439 856 508 853 b 639 704 597 824 639 704 l 675 714 l 675 899 l 28 899 b 22 868 28 899 25 881 z m 575 1042 b 507 1103 575 1075 543 1103 b 439 1042 471 1103 439 1075 b 507 982 439 1008 471 982 b 575 1042 543 982 575 1008 z m 304 1042 b 238 1103 304 1075 272 1103 b 169 1042 200 1103 169 1075 b 238 982 169 1008 200 982 b 304 1042 272 982 304 1008 z "},"Ì":{"ha":464,"x_min":0,"x_max":0,"o":"m 442 31 l 407 31 b 306 199 314 31 306 124 l 306 636 b 303 732 306 660 303 694 b 365 867 303 794 313 860 b 375 899 369 879 369 888 l 68 899 l 58 865 l 65 865 b 151 821 101 865 139 854 b 171 636 168 779 171 706 b 169 507 171 588 169 540 l 169 383 b 90 31 169 321 168 31 b 83 0 86 19 86 10 l 432 0 z m 268 969 l 81 1172 b 53 1189 72 1181 63 1189 b -10 1146 36 1189 -10 1161 b 14 1115 -10 1133 4 1122 l 244 954 z "},"Í":{"ha":461,"x_min":0,"x_max":0,"o":"m 442 31 l 407 31 b 306 199 314 31 306 124 l 306 636 b 303 732 306 660 303 694 b 365 867 303 794 313 860 b 375 899 369 879 369 888 l 68 899 l 58 865 l 65 865 b 151 821 101 865 139 854 b 171 636 168 779 171 706 b 169 507 171 588 169 540 l 169 383 b 90 31 169 321 168 31 b 83 0 86 19 86 10 l 432 0 z m 431 1117 b 372 1165 431 1132 389 1165 b 346 1150 360 1165 354 1157 l 146 968 l 168 951 l 404 1090 b 431 1117 415 1097 431 1104 z "},"Î":{"ha":463,"x_min":0,"x_max":0,"o":"m 442 31 l 407 31 b 306 199 314 31 306 124 l 306 636 b 303 732 306 660 303 694 b 365 867 303 794 313 860 b 375 899 369 879 369 888 l 68 899 l 58 865 l 65 865 b 151 821 101 865 139 854 b 171 636 168 779 171 706 b 169 507 171 588 169 540 l 169 383 b 90 31 169 321 168 31 b 83 0 86 19 86 10 l 432 0 z m 418 981 l 236 1157 l 206 1157 l 21 985 l 51 965 l 221 1086 l 388 961 z "},"Ï":{"ha":463,"x_min":0,"x_max":0,"o":"m 442 31 l 407 31 b 306 199 314 31 306 124 l 306 636 b 303 732 306 660 303 694 b 365 867 303 794 313 860 b 375 899 369 879 369 888 l 68 899 l 58 865 l 65 865 b 151 821 101 865 139 854 b 171 636 168 779 171 706 b 169 507 171 588 169 540 l 169 383 b 90 31 169 321 168 31 b 83 0 86 19 86 10 l 432 0 z m 408 1038 b 340 1099 408 1071 376 1099 b 272 1038 304 1099 272 1071 b 340 978 272 1004 304 978 b 408 1038 376 978 408 1004 z m 138 1038 b 69 1099 138 1071 106 1099 b 3 1038 33 1099 3 1071 b 69 978 3 1004 33 978 b 138 1038 106 978 138 1004 z "},"Ł":{"ha":750,"x_min":0,"x_max":0,"o":"m 732 219 l 694 222 b 489 51 671 114 601 51 l 440 51 b 276 194 335 51 276 60 l 276 482 l 421 553 l 401 599 l 278 539 b 275 700 278 539 275 642 b 276 740 275 722 275 739 b 346 867 276 824 308 867 l 347 867 b 357 899 351 878 354 888 l 33 899 l 26 865 b 43 867 32 865 38 867 b 146 722 131 867 146 803 b 144 476 146 640 144 558 l 29 418 l 47 367 l 146 418 l 146 215 b 82 28 146 178 142 28 l 75 0 l 700 0 z "},"Ñ":{"ha":1017,"x_min":0,"x_max":0,"o":"m 940 896 l 676 896 l 658 853 b 771 803 701 853 754 842 b 796 501 796 746 796 567 b 792 201 796 401 793 301 l 458 594 b 251 896 381 686 300 788 l 3 896 l -17 853 l -6 853 b 89 789 39 853 76 831 b 111 550 110 715 111 628 l 111 522 b 36 0 111 418 108 81 l 321 0 l 331 47 b 308 46 322 46 315 46 b 176 249 188 46 176 157 l 176 731 l 603 221 b 754 0 649 167 743 65 l 865 0 l 865 415 l 864 499 b 881 790 864 596 865 694 b 940 896 888 831 906 869 z m 774 1088 l 761 1113 b 617 1053 719 1082 672 1053 b 407 1131 543 1053 507 1131 b 231 1008 343 1131 268 1050 l 244 989 b 400 1058 290 1021 339 1058 b 621 988 501 1058 540 988 b 774 1088 678 988 740 1051 z "},"Ò":{"ha":1153,"x_min":0,"x_max":0,"o":"m 1074 447 b 588 903 1074 731 889 903 b 71 451 290 903 71 732 b 564 -18 71 181 264 -18 b 1074 447 863 -18 1074 169 z m 924 397 b 596 38 924 201 828 38 b 215 511 333 38 215 303 b 564 851 215 722 326 851 b 924 397 826 851 924 608 z m 578 967 l 390 1169 b 363 1186 383 1178 375 1186 b 301 1143 347 1186 301 1158 b 324 1113 301 1131 315 1119 l 556 951 z "},"Ó":{"ha":1153,"x_min":0,"x_max":0,"o":"m 1074 447 b 588 903 1074 731 889 903 b 71 451 290 903 71 732 b 564 -18 71 181 264 -18 b 1074 447 863 -18 1074 169 z m 924 397 b 596 38 924 201 828 38 b 215 511 333 38 215 303 b 564 851 215 722 326 851 b 924 397 826 851 924 608 z m 796 1118 b 740 1165 796 1133 756 1165 b 714 1150 726 1165 721 1157 l 514 968 l 535 951 l 772 1090 b 796 1118 781 1096 796 1106 z "},"Ô":{"ha":1143,"x_min":0,"x_max":0,"o":"m 1074 447 b 588 903 1074 731 889 903 b 71 451 290 903 71 732 b 564 -18 71 181 264 -18 b 1074 447 863 -18 1074 169 z m 924 397 b 596 38 924 201 828 38 b 215 511 333 38 215 303 b 564 851 215 722 326 851 b 924 397 826 851 924 608 z m 763 982 l 581 1158 l 550 1158 l 365 986 l 396 967 l 565 1088 l 732 963 z "},"Õ":{"ha":1149,"x_min":0,"x_max":0,"o":"m 1074 447 b 588 903 1074 731 889 903 b 71 451 290 903 71 732 b 564 -18 71 181 264 -18 b 1074 447 863 -18 1074 169 z m 924 397 b 596 38 924 201 828 38 b 215 511 333 38 215 303 b 564 851 215 722 326 851 b 924 397 826 851 924 608 z m 829 1093 l 817 1118 b 686 1058 779 1088 736 1058 b 496 1136 619 1058 585 1136 b 335 1014 436 1136 369 1056 l 347 994 b 489 1064 389 1026 433 1064 b 690 993 579 1064 617 993 b 829 1093 742 993 799 1057 z "},"Ö":{"ha":1149,"x_min":0,"x_max":0,"o":"m 1074 447 b 588 903 1074 731 889 903 b 71 451 290 903 71 732 b 564 -18 71 181 264 -18 b 1074 447 863 -18 1074 169 z m 924 397 b 596 38 924 201 828 38 b 215 511 333 38 215 303 b 564 851 215 722 326 851 b 924 397 826 851 924 608 z m 746 1036 b 679 1097 746 1069 715 1097 b 610 1036 642 1097 610 1069 b 679 976 610 1003 642 976 b 746 1036 715 976 746 1003 z m 475 1036 b 408 1097 475 1069 444 1097 b 340 1036 371 1097 340 1069 b 408 976 340 1003 371 976 b 475 1036 444 976 475 1003 z "},"Ø":{"ha":1153,"x_min":0,"x_max":0,"o":"m 1072 458 b 896 814 1072 599 1022 728 l 1018 965 l 978 993 l 854 840 b 557 910 764 889 658 910 b 21 460 260 910 21 740 b 229 71 21 310 93 160 l 106 -82 l 144 -114 l 274 46 b 533 -11 353 7 443 -11 b 1072 458 832 -11 1072 181 z m 788 758 l 303 161 b 165 519 211 257 165 393 b 533 858 165 731 297 858 b 788 758 632 858 719 824 z m 924 408 b 565 44 924 213 797 44 b 339 126 482 44 403 75 l 821 722 b 924 408 889 635 924 514 z "},"Œ":{"ha":1428,"x_min":0,"x_max":0,"o":"m 1393 211 l 1338 218 b 1210 57 1338 218 1307 69 b 1078 50 1158 51 1118 50 l 1028 50 b 915 189 958 51 915 126 l 915 451 l 1171 451 b 1265 361 1222 451 1265 361 l 1292 372 l 1292 586 l 1254 582 b 1182 504 1254 582 1224 506 b 1067 503 1147 503 1106 503 b 915 504 988 503 915 504 l 915 853 b 1004 854 915 853 954 854 b 1181 839 1065 854 1140 851 b 1274 703 1233 821 1274 703 l 1310 714 l 1310 897 l 583 899 b 86 426 286 899 86 707 b 590 -19 86 156 292 -19 b 817 0 660 -19 756 0 l 1363 0 z m 778 761 b 776 128 778 506 776 368 b 671 31 776 86 754 32 l 664 31 b 231 471 324 31 231 240 l 231 486 b 628 856 233 694 313 856 l 640 856 b 778 774 768 853 778 801 z "},"Š":{"ha":699,"x_min":0,"x_max":0,"o":"m 646 268 b 228 711 639 561 228 496 b 394 864 228 797 300 864 b 583 694 503 864 582 792 l 625 704 l 625 889 b 419 913 557 899 489 913 b 99 665 257 913 100 831 l 99 664 b 507 215 99 379 507 467 b 317 44 507 108 436 44 b 106 222 203 44 106 115 l 106 232 l 58 221 l 58 25 b 286 -12 135 4 206 -12 b 646 258 481 -12 646 69 z m 567 1131 l 544 1153 l 392 1025 l 240 1150 l 213 1131 l 378 954 l 406 954 z "},"Þ":{"ha":794,"x_min":0,"x_max":0,"o":"m 749 497 b 396 721 749 706 579 713 l 276 726 l 276 781 b 303 869 276 822 279 865 b 313 901 307 883 306 888 l 44 899 l 33 865 b 47 867 39 865 43 867 b 140 711 135 867 140 779 l 140 318 b 142 250 140 306 142 281 b 88 25 142 161 135 25 b 78 -4 82 13 81 3 l 417 -4 l 425 31 l 394 31 b 275 228 282 31 275 143 l 275 264 l 276 674 b 304 675 286 675 296 675 b 372 672 328 675 349 672 b 606 481 508 672 606 610 b 376 283 606 347 515 283 b 315 288 356 283 335 283 l 332 253 b 410 246 357 249 383 246 b 749 497 575 246 749 331 z "},"Ù":{"ha":1003,"x_min":0,"x_max":0,"o":"m 958 900 l 671 900 l 661 865 l 681 865 b 822 697 796 865 822 796 l 822 297 b 563 72 822 151 718 72 b 279 294 386 72 279 119 l 279 768 b 333 867 279 799 290 865 b 343 899 339 881 338 888 l 43 900 l 29 865 l 39 865 b 136 701 136 865 136 767 l 136 272 b 526 -12 136 56 317 -12 b 892 276 722 -12 892 85 l 892 717 b 946 863 892 779 904 863 b 958 899 949 878 951 882 z m 522 964 l 335 1167 b 307 1182 328 1175 319 1182 b 246 1139 292 1182 246 1156 b 269 1110 246 1128 260 1117 l 500 949 z "},"Ú":{"ha":1003,"x_min":0,"x_max":0,"o":"m 958 900 l 671 900 l 661 865 l 681 865 b 822 697 796 865 822 796 l 822 297 b 563 72 822 151 718 72 b 279 294 386 72 279 119 l 279 768 b 333 867 279 799 290 865 b 343 899 339 881 338 888 l 43 900 l 29 865 l 39 865 b 136 701 136 865 136 767 l 136 272 b 526 -12 136 56 317 -12 b 892 276 722 -12 892 85 l 892 717 b 946 863 892 779 904 863 b 958 899 949 878 951 882 z m 721 1115 b 663 1163 721 1131 681 1163 b 638 1147 651 1163 644 1154 l 438 965 l 458 949 l 696 1088 b 721 1115 704 1093 721 1103 z "},"Û":{"ha":1003,"x_min":0,"x_max":0,"o":"m 958 900 l 671 900 l 661 865 l 681 865 b 822 697 796 865 822 796 l 822 297 b 563 72 822 151 718 72 b 279 294 386 72 279 119 l 279 768 b 333 867 279 799 290 865 b 343 899 339 881 338 888 l 43 900 l 29 865 l 39 865 b 136 701 136 865 136 767 l 136 272 b 526 -12 136 56 317 -12 b 892 276 722 -12 892 85 l 892 717 b 946 863 892 779 904 863 b 958 899 949 878 951 882 z m 685 981 l 503 1157 l 472 1157 l 288 985 l 318 965 l 488 1086 l 654 961 z "},"Ü":{"ha":1006,"x_min":0,"x_max":0,"o":"m 958 899 l 671 899 l 661 865 l 681 865 b 822 697 796 865 822 796 l 822 297 b 563 72 822 151 718 72 b 279 294 386 72 279 119 l 279 768 b 333 867 279 799 290 865 b 343 899 339 881 338 888 l 43 900 l 29 865 l 39 865 b 136 701 136 865 136 767 l 136 272 b 526 -12 136 56 317 -12 b 892 276 722 -12 892 85 l 892 717 b 946 863 892 779 904 863 b 958 899 949 878 951 882 z m 704 1036 b 638 1097 704 1069 674 1097 b 568 1036 600 1097 568 1069 b 638 976 568 1003 600 976 b 704 1036 674 976 704 1003 z m 433 1036 b 367 1097 433 1069 403 1097 b 300 1036 331 1097 300 1069 b 367 976 300 1003 331 976 b 433 1036 403 976 433 1003 z "},"Ý":{"ha":826,"x_min":0,"x_max":0,"o":"m 842 897 l 568 897 l 553 863 b 639 792 610 863 639 850 b 607 690 639 758 625 719 l 460 461 l 261 765 b 229 817 246 789 242 794 b 225 831 226 821 225 826 b 264 865 225 847 243 861 b 272 896 268 879 271 892 l 4 897 l -12 863 b 97 774 43 863 72 811 l 356 381 l 356 144 b 315 29 356 110 344 29 b 306 -3 311 18 308 11 l 586 -3 l 600 32 l 586 32 b 492 158 503 32 492 92 l 492 413 l 746 792 b 832 865 764 818 799 865 b 842 897 836 881 838 885 z m 619 1117 b 568 1165 619 1132 583 1165 b 544 1150 557 1165 551 1157 l 363 968 l 382 951 l 597 1090 b 619 1117 606 1096 619 1104 z "},"Ÿ":{"ha":828,"x_min":0,"x_max":0,"o":"m 836 900 l 563 900 l 547 865 b 632 794 604 865 632 853 b 600 693 632 761 619 722 l 454 464 l 256 768 b 224 819 240 792 235 797 b 219 833 221 824 219 829 b 258 868 219 850 238 864 b 267 899 263 882 264 894 l -1 900 l -18 865 b 92 776 36 865 67 814 l 350 383 l 350 147 b 308 32 350 113 339 32 b 299 0 304 21 301 14 l 581 0 l 594 35 l 581 35 b 486 161 497 35 486 94 l 486 415 l 739 794 b 826 868 757 821 793 868 b 836 900 831 883 832 888 z m 599 1038 b 538 1099 599 1071 569 1099 b 475 1038 504 1099 475 1071 b 538 978 475 1004 504 978 b 599 1038 569 978 599 1004 z m 353 1038 b 292 1099 353 1071 324 1099 b 231 1038 258 1099 231 1071 b 292 978 231 1004 258 978 b 353 1038 324 978 353 1004 z "},"Ž":{"ha":842,"x_min":0,"x_max":0,"o":"m 813 267 l 771 274 b 547 56 740 174 681 56 l 433 56 b 225 74 364 56 293 63 l 765 901 l 76 901 l 50 683 l 94 671 b 324 850 119 801 178 850 l 582 850 l -8 1 l 782 1 z m 590 1126 l 568 1147 l 414 1019 l 263 1144 l 235 1125 l 400 949 l 428 949 z "},"à":{"ha":854,"x_min":0,"x_max":0,"o":"m 825 32 b 711 138 763 32 729 99 b 561 486 657 254 613 369 b 486 676 538 539 497 621 l 321 676 b 331 633 329 664 331 646 b 297 506 331 589 315 547 l 178 219 b 38 29 158 172 99 36 b 49 3 39 21 47 10 l 272 3 l 281 29 l 271 29 b 206 86 231 29 206 44 b 265 283 206 153 243 224 l 508 283 l 572 126 b 582 76 578 113 582 94 b 551 29 582 53 574 31 b 547 3 551 29 550 13 l 818 3 z m 486 335 l 283 335 l 376 576 z m 429 729 l 258 932 b 233 947 251 940 243 947 b 176 904 218 947 176 921 b 199 875 176 892 189 882 l 408 714 z "},"á":{"ha":854,"x_min":0,"x_max":0,"o":"m 825 32 b 711 138 763 32 729 99 b 561 486 657 254 613 369 b 486 676 538 539 497 621 l 321 676 b 331 633 329 664 331 646 b 297 506 331 589 315 547 l 178 219 b 38 29 158 172 99 36 b 49 3 39 21 47 10 l 272 3 l 281 29 l 271 29 b 206 86 231 29 206 44 b 265 283 206 153 243 224 l 508 283 l 572 126 b 582 76 578 113 582 94 b 551 29 582 53 574 31 b 547 3 551 29 550 13 l 818 3 z m 486 335 l 283 335 l 376 576 z m 639 878 b 586 926 639 893 601 926 b 563 910 575 926 569 918 l 381 728 l 400 711 l 615 850 b 639 878 624 857 639 865 z "},"â":{"ha":854,"x_min":0,"x_max":0,"o":"m 825 32 b 711 138 763 32 729 99 b 561 486 657 254 613 369 b 486 676 538 539 497 621 l 321 676 b 331 633 329 664 331 646 b 297 506 331 589 315 547 l 178 219 b 38 29 158 172 99 36 b 49 3 39 21 47 10 l 272 3 l 281 29 l 271 29 b 206 86 231 29 206 44 b 265 283 206 153 243 224 l 508 283 l 572 126 b 582 76 578 113 582 94 b 551 29 582 53 574 31 b 547 3 551 29 550 13 l 818 3 z m 486 335 l 283 335 l 376 576 z m 585 782 l 419 958 l 392 958 l 229 782 l 251 760 l 406 888 l 556 760 z "},"ã":{"ha":854,"x_min":0,"x_max":0,"o":"m 825 32 b 711 138 763 32 729 99 b 561 486 657 254 613 369 b 486 676 538 539 497 621 l 321 676 b 331 633 329 664 331 646 b 297 506 331 589 315 547 l 178 219 b 38 29 158 172 99 36 b 49 3 39 21 47 10 l 272 3 l 281 29 l 271 29 b 206 86 231 29 206 44 b 265 283 206 153 243 224 l 508 283 l 572 126 b 582 76 578 113 582 94 b 551 29 582 53 574 31 b 547 3 551 29 550 13 l 818 3 z m 649 886 l 636 911 b 506 851 599 881 556 851 b 315 929 439 851 406 929 b 154 807 257 929 189 849 l 167 788 b 308 857 208 819 253 857 b 510 786 400 857 436 786 b 649 886 561 786 618 850 z m 486 335 l 283 335 l 376 576 z "},"ä":{"ha":854,"x_min":0,"x_max":0,"o":"m 825 32 b 711 138 763 32 729 99 b 561 486 657 254 613 369 b 486 676 538 539 497 621 l 321 676 b 331 633 329 664 331 646 b 297 506 331 589 315 547 l 178 219 b 38 29 158 172 99 36 b 49 3 39 21 47 10 l 272 3 l 281 29 l 271 29 b 206 86 231 29 206 44 b 265 283 206 153 243 224 l 508 283 l 572 126 b 582 76 578 113 582 94 b 551 29 582 53 574 31 b 547 3 551 29 550 13 l 818 3 z m 486 335 l 283 335 l 376 576 z m 622 846 b 536 929 622 892 583 929 b 449 846 488 929 449 892 b 536 764 449 800 488 764 b 622 846 583 764 622 800 z m 367 846 b 281 929 367 892 328 929 b 194 846 232 929 194 892 b 281 764 194 800 232 764 b 367 846 328 764 367 800 z "},"å":{"ha":854,"x_min":0,"x_max":0,"o":"m 825 32 b 711 138 763 32 729 99 b 561 486 657 254 613 369 b 486 676 538 539 497 621 l 321 676 b 331 633 329 664 331 646 b 297 506 331 589 315 547 l 178 219 b 38 29 158 172 99 36 b 49 3 39 21 47 10 l 272 3 l 281 29 l 271 29 b 206 86 231 29 206 44 b 265 283 206 153 243 224 l 508 283 l 572 126 b 582 76 578 113 582 94 b 551 29 582 53 574 31 b 547 3 551 29 550 13 l 818 3 z m 532 883 b 407 1007 532 951 475 1007 b 279 885 339 1007 279 954 b 406 760 279 817 338 760 b 532 883 472 760 532 815 z m 486 335 l 283 335 l 376 576 z m 489 882 b 408 796 489 836 456 796 b 318 885 360 796 318 835 b 406 968 318 932 358 968 b 489 882 453 968 489 928 z "},"æ":{"ha":1021,"x_min":0,"x_max":0,"o":"m 972 160 l 928 167 b 835 44 928 167 908 53 b 774 40 814 42 793 40 b 683 43 742 40 711 43 b 600 143 632 44 600 96 l 600 340 b 797 339 600 340 718 339 b 867 272 835 339 867 272 l 896 281 l 896 440 l 858 438 b 806 379 858 438 836 381 l 600 379 l 601 635 b 724 640 601 635 664 640 b 814 632 758 640 793 639 b 883 529 853 618 883 529 l 924 538 l 924 676 l 343 676 b 353 628 351 664 353 642 b 311 500 353 585 332 540 l 164 219 b 19 32 140 174 71 35 b 22 1 21 24 21 8 l 235 0 l 247 29 l 238 29 b 172 86 197 29 172 44 b 251 283 172 153 231 224 l 469 283 l 469 99 b 429 26 469 67 458 26 b 421 0 426 14 421 0 l 950 1 z m 469 328 l 278 328 l 443 644 l 469 644 z "},"ç":{"ha":832,"x_min":0,"x_max":0,"o":"m 761 113 b 571 49 707 71 636 49 b 222 378 344 49 222 185 b 479 644 222 535 301 644 b 701 494 586 644 689 601 l 753 503 l 753 660 b 496 689 689 681 563 689 b 79 347 275 689 79 564 l 79 344 b 460 -8 79 135 236 0 b 376 -137 429 -47 376 -114 b 449 -239 376 -179 449 -208 b 342 -304 449 -289 381 -304 l 343 -340 b 369 -342 351 -340 361 -342 b 547 -239 422 -342 547 -308 b 447 -106 547 -168 447 -171 b 504 -8 447 -82 479 -39 b 742 29 578 -7 681 4 z "},"ð":{"ha":910,"x_min":0,"x_max":0,"o":"m 843 381 b 418 676 843 617 638 676 l 69 676 l 54 647 l 65 647 b 138 618 93 647 128 642 b 144 479 144 601 144 503 l 144 385 l 63 385 l 63 339 l 144 339 l 144 219 b 146 151 144 206 146 179 b 111 28 146 94 140 28 b 104 1 110 18 107 8 l 433 1 b 843 381 682 1 843 157 z m 700 336 b 429 39 700 164 631 39 l 408 39 b 275 129 333 39 275 43 l 275 339 l 404 339 l 404 385 l 275 385 l 275 638 b 332 639 293 639 313 639 l 389 639 b 700 336 621 639 700 557 z "},"è":{"ha":694,"x_min":0,"x_max":0,"o":"m 646 160 l 600 167 b 508 44 600 167 582 53 b 447 40 488 42 467 40 b 357 43 415 40 385 43 b 272 143 304 44 272 96 l 272 340 b 469 339 272 340 392 339 b 540 272 508 339 540 272 l 569 281 l 569 440 l 532 438 b 478 379 532 438 510 381 l 272 379 l 274 635 b 396 640 274 635 336 640 b 486 632 431 640 467 639 b 557 529 525 618 557 529 l 597 538 l 597 676 l 57 676 l 53 647 b 61 649 53 647 56 649 b 97 640 68 649 82 647 b 143 581 128 628 143 594 b 142 99 143 389 142 279 b 101 26 142 67 132 26 b 97 3 100 14 97 3 l 622 1 z m 365 733 l 194 936 b 169 951 189 944 179 951 b 113 908 154 951 113 925 b 135 879 113 896 126 886 l 344 718 z "},"é":{"ha":694,"x_min":0,"x_max":0,"o":"m 646 160 l 600 167 b 508 44 600 167 582 53 b 447 40 488 42 467 40 b 357 43 415 40 385 43 b 272 143 304 44 272 96 l 272 340 b 469 339 272 340 392 339 b 540 272 508 339 540 272 l 569 281 l 569 440 l 532 438 b 478 379 532 438 510 381 l 272 379 l 274 635 b 396 640 274 635 336 640 b 486 632 431 640 467 639 b 557 529 525 618 557 529 l 597 538 l 597 676 l 57 676 l 53 647 b 61 649 53 647 56 649 b 97 640 68 649 82 647 b 143 581 128 628 143 594 b 142 99 143 389 142 279 b 101 26 142 67 132 26 b 97 3 100 14 97 3 l 622 1 z m 569 878 b 517 926 569 893 532 926 b 493 910 506 926 500 918 l 311 728 l 331 711 l 546 850 b 569 878 554 857 569 865 z "},"ê":{"ha":694,"x_min":0,"x_max":0,"o":"m 646 160 l 600 167 b 508 44 600 167 582 53 b 447 40 488 42 467 40 b 357 43 415 40 385 43 b 272 143 304 44 272 96 l 272 340 b 469 339 272 340 392 339 b 540 272 508 339 540 272 l 569 281 l 569 440 l 532 438 b 478 379 532 438 510 381 l 272 379 l 274 635 b 396 640 274 635 336 640 b 486 632 431 640 467 639 b 557 529 525 618 557 529 l 597 538 l 597 676 l 57 676 l 53 647 b 61 649 53 647 56 649 b 97 640 68 649 82 647 b 143 581 128 628 143 594 b 142 99 143 389 142 279 b 101 26 142 67 132 26 b 97 3 100 14 97 3 l 622 1 z m 521 782 l 356 958 l 328 958 l 165 782 l 188 760 l 342 888 l 492 760 z "},"ë":{"ha":694,"x_min":0,"x_max":0,"o":"m 646 160 l 600 167 b 508 44 600 167 582 53 b 447 40 488 42 467 40 b 357 43 415 40 385 43 b 272 143 304 44 272 96 l 272 340 b 469 339 272 340 392 339 b 540 272 508 339 540 272 l 569 281 l 569 440 l 532 438 b 478 379 532 438 510 381 l 272 379 l 274 635 b 396 640 274 635 336 640 b 486 632 431 640 467 639 b 557 529 525 618 557 529 l 597 538 l 597 676 l 57 676 l 53 647 b 61 649 53 647 56 649 b 97 640 68 649 82 647 b 143 581 128 628 143 594 b 142 99 143 389 142 279 b 101 26 142 67 132 26 b 97 3 100 14 97 3 l 622 1 z m 293 850 b 206 932 293 896 254 932 b 119 850 158 932 119 896 b 206 767 119 804 158 767 b 293 850 254 767 293 804 z m 547 850 b 461 932 547 896 510 932 b 375 850 414 932 375 896 b 461 767 375 804 414 767 b 547 850 510 767 547 804 z "},"ı":{"ha":410,"x_min":0,"x_max":0,"o":"m 376 35 l 353 35 b 275 161 281 35 275 107 l 275 478 b 274 529 275 490 274 510 b 328 643 274 581 281 643 b 335 676 332 653 332 669 l 69 675 l 61 643 l 67 643 b 129 610 93 643 119 635 b 143 471 140 585 143 526 b 142 382 143 438 142 404 l 142 289 b 86 35 142 242 142 35 b 81 1 82 26 82 8 l 369 1 z "},"ì":{"ha":418,"x_min":0,"x_max":0,"o":"m 381 33 l 357 33 b 279 160 285 33 279 106 l 279 476 b 278 524 279 489 278 506 b 332 642 278 576 285 642 b 340 675 336 651 336 667 l 76 675 l 69 643 l 75 643 b 133 608 101 643 122 633 b 147 453 146 581 147 513 l 147 288 b 90 33 147 240 147 33 b 85 0 88 25 86 7 l 374 0 z m 264 728 l 93 931 b 68 946 86 939 78 946 b 11 903 53 946 11 919 b 33 874 11 890 25 881 l 243 713 z "},"í":{"ha":418,"x_min":0,"x_max":0,"o":"m 381 35 l 357 35 b 279 161 285 35 279 107 l 279 478 b 278 529 279 490 278 510 b 332 643 278 581 285 643 b 339 676 336 653 336 669 l 74 675 l 65 643 l 71 643 b 133 610 97 643 122 635 b 147 471 144 585 147 526 b 146 382 147 438 146 404 l 146 289 b 90 35 146 242 146 35 b 85 1 86 26 86 8 l 374 1 z m 406 885 b 353 933 406 900 368 933 b 329 917 342 933 336 925 l 147 735 l 167 718 l 382 857 b 406 885 390 864 406 872 z "},"î":{"ha":418,"x_min":0,"x_max":0,"o":"m 381 33 l 363 33 b 279 160 285 33 279 106 l 279 476 b 278 524 279 489 278 506 b 332 642 278 576 285 642 b 340 675 336 651 336 667 l 74 675 l 65 643 l 71 643 b 133 608 97 643 122 633 b 147 453 146 581 147 513 l 147 288 b 90 33 147 240 147 33 b 85 0 88 25 86 7 l 374 0 z m 392 781 l 226 957 l 199 957 l 36 781 l 58 758 l 213 886 l 363 758 z "},"ï":{"ha":418,"x_min":0,"x_max":0,"o":"m 382 35 l 358 35 b 281 161 286 35 281 106 l 281 476 b 279 524 281 489 279 506 b 333 642 279 576 286 642 b 342 676 338 651 338 668 l 74 675 l 65 643 l 71 643 b 135 608 97 643 124 633 b 149 453 147 581 149 513 l 149 288 b 92 35 149 242 147 35 b 81 1 89 25 82 8 l 369 1 z m 172 844 b 94 928 172 890 142 928 b 15 849 46 928 15 894 b 94 763 15 803 46 763 b 172 844 142 763 172 799 z m 413 842 b 335 928 413 886 382 928 b 256 844 286 928 256 890 b 335 763 256 799 286 763 b 413 842 382 763 413 796 z "},"ł":{"ha":668,"x_min":0,"x_max":0,"o":"m 628 165 l 581 167 b 428 43 565 90 517 43 l 376 43 b 274 151 282 43 274 88 l 274 392 l 397 471 l 375 504 l 274 440 l 274 458 b 322 647 274 517 276 646 b 326 676 326 658 325 669 l 58 675 l 53 647 l 67 647 b 142 543 136 647 142 596 l 142 503 b 143 357 142 475 143 421 l 60 306 l 79 268 l 143 308 l 143 156 b 94 28 143 71 119 28 b 89 1 90 19 90 7 l 604 1 z "},"ñ":{"ha":947,"x_min":0,"x_max":0,"o":"m 869 678 l 653 678 l 640 647 b 729 611 674 647 715 642 b 750 332 749 565 750 410 l 750 182 l 486 478 b 347 676 442 528 367 624 l 92 676 l 83 646 l 92 646 b 178 485 174 646 178 543 l 178 413 b 114 26 178 283 174 26 b 113 15 113 22 113 18 l 113 0 l 343 0 l 351 32 b 236 192 249 32 236 119 l 236 569 l 581 182 b 711 1 614 144 704 43 l 806 1 l 806 328 b 864 647 806 400 807 646 b 869 678 868 660 865 669 z m 726 886 l 714 911 b 583 851 676 881 633 851 b 393 929 517 851 483 929 b 232 807 335 929 267 849 l 244 788 b 386 857 286 819 331 857 b 588 786 478 857 514 786 b 726 886 639 786 696 850 z "},"ò":{"ha":951,"x_min":0,"x_max":0,"o":"m 871 342 b 479 688 871 554 707 688 b 75 346 257 688 75 556 b 464 -6 75 143 239 -6 b 871 342 688 -6 871 133 z m 721 311 b 492 39 721 165 644 39 l 486 39 b 218 386 306 42 218 231 b 468 643 218 544 301 643 l 471 643 b 721 311 650 643 721 469 z m 511 733 l 340 936 b 315 951 335 944 325 951 b 258 908 300 951 258 925 b 281 879 258 896 272 886 l 490 718 z "},"ó":{"ha":951,"x_min":0,"x_max":0,"o":"m 871 342 b 479 688 871 554 707 688 b 75 346 257 688 75 556 b 464 -6 75 143 239 -6 b 871 342 688 -6 871 133 z m 721 311 b 492 39 721 165 644 39 l 486 39 b 218 386 306 42 218 231 b 468 643 218 544 301 643 l 471 643 b 721 311 650 643 721 469 z m 700 890 b 647 939 700 906 663 939 b 624 922 636 939 631 931 l 442 740 l 461 724 l 676 863 b 700 890 685 869 700 878 z "},"ô":{"ha":951,"x_min":0,"x_max":0,"o":"m 871 342 b 479 688 871 554 707 688 b 75 346 257 688 75 556 b 464 -6 75 143 239 -6 b 871 342 688 -6 871 133 z m 721 311 b 492 39 721 165 644 39 l 486 39 b 218 386 306 42 218 231 b 468 643 218 544 301 643 l 471 643 b 721 311 650 643 721 469 z m 647 781 l 482 957 l 454 957 l 292 781 l 314 758 l 468 886 l 618 758 z "},"õ":{"ha":951,"x_min":0,"x_max":0,"o":"m 871 342 b 479 688 871 554 707 688 b 75 346 257 688 75 556 b 464 -6 75 143 239 -6 b 871 342 688 -6 871 133 z m 721 311 b 492 39 721 165 644 39 l 486 39 b 218 386 306 42 218 231 b 468 643 218 544 301 643 l 471 643 b 721 311 650 643 721 469 z m 713 888 l 700 913 b 569 853 663 882 619 853 b 379 931 503 853 469 931 b 218 808 321 931 253 850 l 231 789 b 372 858 272 821 317 858 b 574 788 464 858 500 788 b 713 888 625 788 682 851 z "},"ö":{"ha":951,"x_min":0,"x_max":0,"o":"m 871 342 b 479 688 871 554 707 688 b 75 346 257 688 75 556 b 464 -6 75 143 239 -6 b 871 342 688 -6 871 133 z m 721 311 b 492 39 721 165 644 39 l 486 39 b 218 386 306 42 218 231 b 468 643 218 544 301 643 l 471 643 b 721 311 650 643 721 469 z m 688 847 b 601 931 688 893 649 931 b 514 847 553 931 514 893 b 601 765 514 803 553 765 b 688 847 649 765 688 803 z m 432 847 b 346 931 432 893 393 931 b 260 847 299 931 260 893 b 346 765 260 803 299 765 b 432 847 393 765 432 803 z "},"ø":{"ha":951,"x_min":0,"x_max":0,"o":"m 871 342 b 751 601 871 453 826 542 l 831 686 l 800 713 l 718 625 b 479 688 653 665 572 688 b 75 346 257 688 75 556 b 200 82 75 238 122 144 l 110 -12 l 140 -39 l 232 58 b 464 -6 296 17 375 -6 b 871 342 688 -6 871 133 z m 650 554 l 279 164 b 218 386 238 231 218 313 b 468 643 218 544 301 642 b 650 554 550 643 610 608 z m 721 311 b 492 39 721 165 644 39 l 486 39 b 303 131 407 40 346 76 l 672 519 b 721 311 706 458 721 383 z "},"œ":{"ha":1189,"x_min":0,"x_max":0,"o":"m 1143 160 l 1099 167 b 1007 42 1099 167 1081 50 b 946 38 986 39 965 38 b 856 40 914 38 883 40 b 772 142 803 42 772 94 l 772 339 b 969 338 772 339 890 338 b 1039 269 1007 338 1039 269 l 1068 279 l 1068 439 l 1031 436 b 978 376 1031 436 1008 378 b 913 375 958 375 936 375 b 772 378 843 375 772 378 l 772 633 b 889 639 772 633 831 639 b 986 629 926 639 964 636 b 1056 526 1025 617 1056 526 l 1096 536 l 1096 676 l 581 676 b 479 688 551 685 518 688 b 75 346 257 688 75 556 b 464 -6 75 143 239 -6 b 543 1 493 -6 519 -3 l 1121 1 z m 644 107 b 492 39 644 60 557 39 l 486 39 b 218 386 306 42 218 231 b 465 643 218 543 301 643 l 468 643 b 644 553 565 643 644 607 z "},"š":{"ha":638,"x_min":0,"x_max":0,"o":"m 565 206 b 215 540 565 451 215 392 l 215 542 b 347 647 215 606 276 647 b 490 524 428 647 489 596 l 546 533 l 546 672 b 367 688 494 679 419 688 b 93 506 244 688 93 644 b 440 167 93 260 440 346 l 440 165 b 286 43 440 85 376 43 b 124 175 201 43 124 94 l 124 182 l 68 172 l 68 25 b 267 -6 125 10 206 -6 b 565 206 414 -6 565 43 z m 525 944 l 503 967 l 349 839 l 197 964 l 169 944 l 335 768 l 363 768 z "},"ß":{"ha":1219,"x_min":0,"x_max":0,"o":"m 565 206 b 215 540 565 451 215 392 l 215 542 b 347 647 215 606 276 647 b 490 524 428 647 489 596 l 546 533 l 546 672 b 367 688 494 679 419 688 b 93 506 244 688 93 644 b 440 167 93 260 440 346 l 440 165 b 286 43 440 85 376 43 b 124 175 201 43 124 94 l 124 182 l 68 172 l 68 25 b 267 -6 125 10 206 -6 b 565 206 414 -6 565 43 z m 1147 206 b 797 540 1147 451 797 392 l 797 542 b 929 647 797 606 858 647 b 1072 524 1010 647 1071 596 l 1128 533 l 1128 672 b 949 688 1076 679 1001 688 b 675 506 826 688 675 644 b 1022 167 675 260 1022 346 l 1022 165 b 868 43 1022 85 958 43 b 706 175 783 43 706 94 l 706 182 l 650 172 l 650 25 b 849 -6 707 10 788 -6 b 1147 206 996 -6 1147 43 z "},"þ":{"ha":724,"x_min":0,"x_max":0,"o":"m 657 378 b 383 547 657 529 504 547 l 278 547 l 278 563 b 292 632 278 583 279 619 b 340 647 306 646 333 647 l 342 647 l 349 676 l 69 676 l 58 647 l 69 647 b 143 524 142 647 143 574 l 143 217 b 104 32 143 161 140 32 b 103 19 103 28 103 24 b 101 1 103 13 103 7 l 379 1 l 392 32 l 368 32 b 274 197 274 32 274 135 l 274 504 b 311 506 286 506 299 506 l 349 506 b 506 375 451 506 506 471 b 339 221 506 271 447 221 b 306 224 328 221 317 221 l 317 192 b 371 188 336 188 353 188 b 657 378 499 188 657 251 z "},"ù":{"ha":850,"x_min":0,"x_max":0,"o":"m 774 678 l 547 678 l 539 647 l 554 647 b 663 526 640 647 663 600 l 663 226 b 469 67 663 117 586 67 b 272 225 338 67 272 93 l 272 581 b 314 647 272 603 281 646 b 321 678 318 658 317 669 l 71 676 l 61 647 l 69 647 b 140 533 139 647 140 582 l 140 206 b 443 -12 140 43 285 -12 b 722 206 589 -12 722 63 l 722 536 b 761 646 722 583 729 646 b 774 678 764 657 768 665 z m 463 725 l 292 928 b 267 943 285 936 276 943 b 210 900 251 943 210 917 b 232 871 210 888 224 878 l 442 710 z "},"ú":{"ha":850,"x_min":0,"x_max":0,"o":"m 774 678 l 547 678 l 539 647 l 554 647 b 663 526 640 647 663 600 l 663 226 b 469 67 663 117 586 67 b 272 225 338 67 272 93 l 272 581 b 314 647 272 603 281 646 b 321 678 318 658 317 669 l 71 676 l 61 647 l 69 647 b 140 533 139 647 140 582 l 140 206 b 443 -12 140 43 285 -12 b 722 206 589 -12 722 63 l 722 536 b 761 646 722 583 729 646 b 774 678 764 657 768 665 z m 685 888 b 632 936 685 903 647 936 b 608 919 621 936 615 928 l 426 738 l 446 721 l 661 860 b 685 888 669 867 685 875 z "},"û":{"ha":850,"x_min":0,"x_max":0,"o":"m 774 678 l 547 678 l 539 647 l 554 647 b 663 526 640 647 663 600 l 663 226 b 469 67 663 117 586 67 b 272 225 338 67 272 93 l 272 581 b 314 647 272 603 281 646 b 321 678 318 658 317 669 l 71 676 l 61 647 l 69 647 b 140 533 139 647 140 582 l 140 206 b 443 -12 140 43 285 -12 b 722 206 589 -12 722 63 l 722 536 b 761 646 722 583 729 646 b 774 678 764 657 768 665 z m 621 779 l 456 956 l 428 956 l 265 779 l 288 757 l 442 885 l 592 757 z "},"ü":{"ha":850,"x_min":0,"x_max":0,"o":"m 774 678 l 547 678 l 539 647 l 554 647 b 663 526 640 647 663 600 l 663 226 b 469 67 663 117 586 67 b 272 225 338 67 272 93 l 272 581 b 314 647 272 603 281 646 b 321 678 318 658 317 669 l 71 676 l 61 647 l 69 647 b 140 533 139 647 140 582 l 140 206 b 443 -12 140 43 285 -12 b 722 206 589 -12 722 63 l 722 536 b 761 646 722 583 729 646 b 774 678 764 657 768 665 z m 663 843 b 576 925 663 889 624 925 b 489 843 528 925 489 889 b 576 761 489 797 528 761 b 663 843 624 761 663 797 z m 407 843 b 321 925 407 889 368 925 b 235 843 272 925 235 889 b 321 761 235 797 272 761 b 407 843 368 761 407 797 z "},"ý":{"ha":722,"x_min":0,"x_max":0,"o":"m 697 676 l 493 676 l 481 647 b 544 597 522 647 544 640 b 518 524 544 572 533 546 l 413 367 l 274 578 b 247 625 263 596 256 608 b 246 632 246 628 246 631 b 281 647 246 643 264 643 b 285 678 285 657 283 674 l 40 676 l 29 647 b 110 585 71 647 92 613 l 303 289 l 303 113 b 274 28 303 86 296 28 b 265 1 271 19 268 13 l 506 1 l 518 32 l 506 32 b 435 122 444 32 435 72 l 435 313 l 625 597 b 690 647 639 617 665 647 b 697 676 693 658 694 667 z m 619 878 b 567 926 619 893 582 926 b 543 910 556 926 550 918 l 361 728 l 381 711 l 596 850 b 619 878 604 857 619 865 z "},"ÿ":{"ha":722,"x_min":0,"x_max":0,"o":"m 697 676 l 493 676 l 481 647 b 544 597 522 647 544 640 b 518 524 544 572 533 546 l 413 367 l 274 578 b 247 625 263 596 256 608 b 246 632 246 628 246 631 b 281 647 246 643 264 643 b 285 678 285 657 283 674 l 40 676 l 29 647 b 110 585 71 647 92 613 l 303 289 l 303 113 b 274 28 303 86 296 28 b 265 1 271 19 268 13 l 506 1 l 518 32 l 506 32 b 435 122 444 32 435 72 l 435 313 l 625 597 b 690 647 639 617 665 647 b 697 676 693 658 694 667 z m 589 835 b 503 917 589 881 550 917 b 417 835 454 917 417 881 b 503 753 417 789 454 753 b 589 835 550 753 589 789 z m 333 835 b 247 917 333 881 294 917 b 161 835 200 917 161 881 b 247 753 161 789 200 753 b 333 835 294 753 333 789 z "},"ž":{"ha":761,"x_min":0,"x_max":0,"o":"m 713 200 l 656 206 b 489 42 633 131 588 42 l 403 42 b 254 54 351 42 306 46 l 682 676 l 117 676 l 97 513 l 149 503 b 318 636 168 601 210 636 l 499 636 l 60 1 l 690 1 z m 582 940 l 560 963 l 406 835 l 254 960 l 226 940 l 392 764 l 419 764 z "},"ﬁ":{"ha":1001,"x_min":0,"x_max":0,"o":"m 582 539 l 582 678 l 53 676 b 49 647 53 668 51 654 l 67 647 b 117 632 86 647 104 646 b 143 517 142 606 143 554 l 143 272 b 144 203 143 257 144 232 b 101 28 144 126 139 28 b 97 10 97 18 97 14 l 97 0 l 386 0 l 390 32 l 372 32 b 310 51 349 32 328 33 b 275 229 276 83 275 188 l 275 336 l 381 336 b 508 269 442 336 494 335 l 540 279 l 540 451 l 504 443 l 504 438 b 483 397 504 422 494 407 b 403 381 471 382 433 381 l 275 381 l 275 636 b 360 639 303 638 332 639 b 538 531 457 639 535 636 z m 964 35 l 940 35 b 863 161 868 35 863 107 l 863 478 b 861 529 863 490 861 510 b 915 643 861 581 868 643 b 922 676 919 653 919 669 l 657 675 l 649 643 l 654 643 b 717 610 681 643 706 635 b 731 471 728 585 731 526 b 729 382 731 438 729 404 l 729 289 b 674 35 729 242 729 35 b 668 1 669 26 669 8 l 957 1 z "},"ﬂ":{"ha":1251,"x_min":0,"x_max":0,"o":"m 582 539 l 582 678 l 53 676 b 49 647 53 668 51 654 l 67 647 b 117 632 86 647 104 646 b 143 517 142 606 143 554 l 143 272 b 144 203 143 257 144 232 b 101 28 144 126 139 28 b 97 10 97 18 97 14 l 97 0 l 386 0 l 390 32 l 372 32 b 310 51 349 32 328 33 b 275 229 276 83 275 188 l 275 336 l 381 336 b 508 269 442 336 494 335 l 540 279 l 540 451 l 504 443 l 504 438 b 483 397 504 422 494 407 b 403 381 471 382 433 381 l 275 381 l 275 636 b 360 639 303 638 332 639 b 538 531 457 639 535 636 z m 1211 165 l 1164 167 b 1011 43 1149 90 1100 43 l 960 43 b 857 151 865 43 857 88 l 857 458 b 906 647 857 517 860 646 b 910 676 910 658 908 669 l 642 675 l 636 647 l 650 647 b 725 543 719 647 725 596 l 725 503 b 726 233 725 458 726 342 l 726 156 b 678 28 726 71 704 28 b 672 1 674 19 674 7 l 1188 1 z "},"´":{"ha":461,"x_min":0,"x_max":0,"o":"m 363 881 b 310 929 363 896 325 929 b 286 913 299 929 293 921 l 104 731 l 124 714 l 339 853 b 363 881 347 860 363 868 z "},"ˆ":{"ha":536,"x_min":0,"x_max":0,"o":"m 442 804 l 276 981 l 249 981 l 86 804 l 108 782 l 263 910 l 413 782 z "},"ˇ":{"ha":706,"x_min":0,"x_max":0,"o":"m 510 951 l 488 974 l 333 846 l 182 971 l 154 951 l 319 775 l 347 775 z "},"˜":{"ha":674,"x_min":0,"x_max":0,"o":"m 571 892 l 558 917 b 428 857 521 886 478 857 b 238 935 361 857 328 935 b 76 813 179 935 111 854 l 89 793 b 231 863 131 825 175 863 b 432 792 322 863 358 792 b 571 892 483 792 540 856 z "},"¨":{"ha":403,"x_min":0,"x_max":0,"o":"m 544 850 b 458 932 544 896 506 932 b 372 850 410 932 372 896 b 458 767 372 804 410 767 b 544 850 506 767 544 804 z m 289 850 b 203 932 289 896 250 932 b 117 850 156 932 117 896 b 203 767 117 804 156 767 b 289 850 250 767 289 804 z "},"¯":{"ha":569,"x_min":0,"x_max":0,"o":"m 472 853 l 472 917 l 93 917 l 93 853 z "},"˘":{"ha":706,"x_min":0,"x_max":0,"o":"m 510 951 b 488 974 503 960 496 968 b 333 846 467 906 407 846 b 176 969 261 846 199 903 l 154 951 b 319 775 154 879 246 775 l 347 775 b 510 951 419 778 510 879 z "},"˚":{"ha":432,"x_min":0,"x_max":0,"o":"m 338 885 b 213 1008 338 953 281 1008 b 85 886 144 1008 85 956 b 211 761 85 818 143 761 b 338 885 278 761 338 817 z m 294 883 b 214 797 294 838 261 797 b 124 886 165 797 124 836 b 211 969 124 933 164 969 b 294 883 258 969 294 929 z "},"˝":{"ha":365,"x_min":0,"x_max":0,"o":"m 311 965 l 253 965 l 178 760 l 226 760 z m 178 965 l 119 965 l 44 760 l 93 760 z "},"˙":{"ha":390,"x_min":0,"x_max":0,"o":"m 258 876 b 193 944 258 911 231 944 b 125 879 158 944 125 915 b 190 811 125 843 154 811 b 258 876 226 811 258 839 z "},"¸":{"ha":367,"x_min":0,"x_max":0,"o":"m 269 -242 b 169 -108 269 -171 169 -174 b 247 17 169 -76 228 -10 l 201 15 b 99 -140 185 -8 99 -110 b 171 -242 99 -182 171 -211 b 64 -307 171 -292 103 -307 l 65 -343 b 92 -344 74 -343 83 -344 b 269 -242 144 -344 269 -311 z "},"˛":{"ha":382,"x_min":0,"x_max":0,"o":"m 322 -303 l 314 -278 b 246 -285 292 -283 268 -285 b 146 -200 188 -285 146 -264 b 256 33 146 -126 210 -24 l 219 33 b 60 -251 153 -32 60 -157 b 158 -347 60 -315 96 -347 b 322 -303 210 -347 276 -326 z "},"…":{"ha":954,"x_min":0,"x_max":0,"o":"m 239 69 b 158 147 239 117 206 147 b 81 69 113 147 81 115 b 158 -10 81 24 111 -10 b 239 69 206 -10 239 21 z m 865 71 b 785 149 865 118 832 149 b 707 71 739 149 707 117 b 785 -8 707 25 739 -8 b 865 71 832 -8 865 24 z m 547 71 b 467 149 547 118 513 149 b 389 71 421 149 389 117 b 467 -8 389 25 419 -8 b 547 71 514 -8 547 24 z "},"¡":{"ha":394,"x_min":0,"x_max":0,"o":"m 282 15 b 250 31 274 18 254 19 b 235 99 238 51 238 67 b 203 651 222 279 213 469 l 151 651 l 96 -11 l 274 -11 b 282 15 276 -4 279 4 z m 256 838 b 181 914 256 882 225 914 b 104 838 136 914 104 882 b 181 761 104 793 138 761 b 256 838 224 761 256 794 z "},"¿":{"ha":560,"x_min":0,"x_max":0,"o":"m 506 28 l 506 156 l 449 156 b 322 43 433 90 394 43 b 181 199 233 43 181 114 b 354 504 181 329 354 372 b 335 651 354 550 340 606 l 279 651 b 261 488 272 600 275 539 b 47 183 222 347 47 353 b 308 -17 47 47 171 -15 l 321 -17 b 506 28 392 -17 440 -6 z m 381 840 b 306 917 381 886 350 917 b 229 840 261 917 229 886 b 306 764 229 797 263 764 b 381 840 349 764 381 797 z "},"‘":{"ha":315,"x_min":0,"x_max":0,"o":"m 343 1090 b 325 1114 336 1096 328 1106 b 96 915 232 1072 138 1014 b 81 861 92 906 81 872 b 164 747 81 801 90 747 b 240 829 210 747 240 783 b 169 904 240 871 211 900 b 343 1090 188 992 269 1050 z "},"’":{"ha":315,"x_min":0,"x_max":0,"o":"m 244 861 b 161 975 244 921 235 975 b 85 893 115 975 85 939 b 156 818 85 850 113 821 b -18 632 138 731 56 672 b 0 608 -11 626 -3 617 b 229 807 93 650 188 708 b 244 861 233 817 244 850 z "},"“":{"ha":578,"x_min":0,"x_max":0,"o":"m 604 1079 b 586 1103 597 1085 589 1094 b 357 904 493 1061 399 1003 b 342 850 353 894 342 861 b 425 736 342 790 351 736 b 501 818 471 736 501 772 b 431 893 501 860 472 889 b 604 1079 449 981 531 1039 z m 338 1085 b 319 1108 331 1090 322 1100 b 90 910 226 1067 132 1008 b 75 856 86 900 75 867 b 158 742 75 796 85 742 b 235 824 204 742 235 778 b 164 899 235 865 206 894 b 338 1085 182 986 264 1044 z "},"”":{"ha":578,"x_min":0,"x_max":0,"o":"m 506 861 b 422 975 506 921 496 975 b 346 893 376 975 346 939 b 417 818 346 850 374 821 b 243 632 399 731 317 672 b 261 608 250 626 258 617 b 490 807 354 650 449 708 b 506 861 494 817 506 850 z m 239 867 b 156 981 239 926 229 981 b 79 899 110 981 79 944 b 150 824 79 856 107 826 b -24 638 132 736 50 678 b -6 614 -17 632 -8 622 b 224 813 88 656 182 714 b 239 867 228 822 239 856 z "},"‚":{"ha":315,"x_min":0,"x_max":0,"o":"m 244 22 b 161 136 244 82 235 136 b 85 54 115 136 85 100 b 156 -21 85 11 113 -17 b -18 -207 138 -108 56 -167 b 0 -231 -11 -212 -3 -222 b 229 -32 93 -189 188 -131 b 244 22 233 -22 244 11 z "},"„":{"ha":578,"x_min":0,"x_max":0,"o":"m 511 17 b 428 131 511 76 501 131 b 351 49 382 131 351 94 b 422 -26 351 6 379 -22 b 249 -212 404 -114 322 -172 b 267 -236 256 -218 264 -228 b 496 -37 360 -194 454 -136 b 511 17 500 -28 511 6 z m 244 22 b 161 136 244 82 235 136 b 85 54 115 136 85 100 b 156 -21 85 11 113 -17 b -18 -207 138 -108 56 -167 b 0 -231 -11 -212 -3 -222 b 229 -32 93 -189 188 -131 b 244 22 233 -22 244 11 z "},"‹":{"ha":450,"x_min":0,"x_max":0,"o":"m 356 603 l 314 633 l 97 342 l 311 29 l 354 58 l 194 343 z "},"›":{"ha":450,"x_min":0,"x_max":0,"o":"m 354 343 l 138 635 l 96 606 l 257 344 l 97 61 l 140 31 z "},"«":{"ha":692,"x_min":0,"x_max":0,"o":"m 590 597 l 547 628 l 332 336 l 546 24 l 589 53 l 429 338 z m 356 603 l 314 633 l 97 342 l 311 29 l 354 58 l 194 343 z "},"»":{"ha":681,"x_min":0,"x_max":0,"o":"m 579 343 l 364 635 l 321 606 l 482 344 l 322 61 l 365 31 z m 354 343 l 138 635 l 96 606 l 257 344 l 97 61 l 140 31 z "},"–":{"ha":794,"x_min":0,"x_max":0,"o":"m 719 400 l 92 400 l 74 329 l 703 329 z "},"—":{"ha":1000,"x_min":0,"x_max":0,"o":"m 904 431 l 99 431 l 99 365 l 903 365 z "},"•":{"ha":518,"x_min":0,"x_max":0,"o":"m 390 375 b 260 506 390 447 332 506 b 133 371 188 506 133 440 b 268 246 133 299 199 246 b 390 375 339 246 390 306 z "},"·":{"ha":372,"x_min":0,"x_max":0,"o":"m 268 357 b 188 435 268 404 233 435 b 110 357 142 435 110 403 b 188 278 110 311 140 278 b 268 357 235 278 268 308 z "},"†":{"ha":738,"x_min":0,"x_max":0,"o":"m 672 585 l 672 624 b 574 647 643 636 606 647 b 400 631 517 647 457 639 b 415 828 408 696 415 763 b 393 922 415 860 406 893 l 343 922 b 322 817 331 889 322 853 b 343 631 322 756 331 692 b 164 643 283 638 224 643 b 68 624 135 643 96 633 l 68 578 b 161 557 94 568 133 557 b 339 574 219 557 281 565 b 322 310 329 486 322 397 b 351 -222 322 132 335 -46 l 393 -222 b 419 358 407 -29 419 165 b 400 574 419 431 411 503 b 565 557 454 565 511 557 b 672 585 601 557 640 568 z "},"‡":{"ha":738,"x_min":0,"x_max":0,"o":"m 672 136 l 672 175 b 565 203 639 192 601 203 b 400 186 510 203 454 194 b 418 379 410 250 418 315 b 400 574 418 444 411 510 b 565 557 454 565 511 557 b 672 585 601 557 640 568 l 672 624 b 574 647 643 636 606 647 b 400 631 517 647 457 639 b 415 828 408 696 415 763 b 393 922 415 860 406 893 l 343 922 b 322 817 331 889 322 853 b 343 631 322 756 331 692 b 164 643 283 638 224 643 b 68 624 135 643 96 633 l 68 578 b 161 557 94 568 133 557 b 339 574 219 557 281 565 b 322 381 331 510 322 444 b 339 186 322 317 331 250 b 161 203 281 196 219 203 b 68 182 132 203 94 192 l 68 136 b 164 117 96 126 135 117 b 343 129 224 117 283 122 b 321 -57 331 68 321 4 b 344 -299 321 -136 336 -219 l 394 -299 b 415 -68 403 -224 415 -144 b 400 129 415 -3 408 64 b 574 113 457 121 517 113 b 672 136 604 113 643 124 z "},"§":{"ha":710,"x_min":0,"x_max":0,"o":"m 621 271 l 621 274 b 272 636 621 464 272 499 b 397 714 272 703 340 714 b 499 624 450 714 496 675 l 535 619 l 553 726 b 393 753 511 751 440 753 b 156 593 296 753 156 692 b 222 489 156 551 196 522 b 85 351 165 467 86 406 l 85 349 b 426 -26 85 154 426 108 l 426 -28 b 301 -107 425 -93 369 -107 b 190 -15 253 -107 190 -74 l 190 -10 l 151 -10 l 138 -112 b 307 -153 176 -143 256 -153 b 551 7 406 -153 551 -94 b 490 119 551 49 518 85 b 621 271 550 143 619 214 z m 500 211 b 467 140 500 183 492 158 b 215 356 408 188 228 288 b 211 400 213 371 211 386 b 244 468 211 429 219 450 b 496 251 303 421 483 321 b 500 211 499 238 500 225 z "},"¶":{"ha":819,"x_min":0,"x_max":0,"o":"m 760 92 l 644 92 l 644 740 l 743 740 l 756 786 l 643 786 l 643 878 l 601 868 l 601 783 l 586 783 b 165 418 378 783 165 644 b 590 47 165 190 378 47 l 601 47 l 601 -78 l 644 -67 l 644 49 l 749 49 z m 601 94 l 578 94 b 453 443 467 94 453 374 b 574 740 453 514 465 740 l 601 740 z "},"¦":{"ha":344,"x_min":0,"x_max":0,"o":"m 196 464 l 196 997 l 151 994 l 151 464 z m 196 -194 l 196 338 l 151 335 l 151 -194 z "},"©":{"ha":1081,"x_min":0,"x_max":0,"o":"m 1049 490 b 540 1000 1049 771 822 1000 b 31 490 258 1000 31 772 b 540 -18 31 208 260 -18 b 1049 490 821 -18 1049 210 z m 992 490 b 540 40 992 242 789 40 b 89 490 292 40 89 240 b 540 942 89 739 292 942 b 992 490 789 942 992 739 z m 765 303 l 742 325 b 563 235 692 272 639 235 b 378 478 428 235 378 361 b 556 725 378 589 422 725 b 726 575 654 725 697 658 l 753 575 l 747 765 l 724 765 b 694 735 721 751 711 735 b 543 767 663 735 604 767 b 260 476 376 767 260 640 b 542 190 260 313 376 190 b 765 303 632 190 710 233 z "},"®":{"ha":540,"x_min":0,"x_max":0,"o":"m 524 750 b 269 1004 524 890 410 1004 b 17 750 129 1004 17 889 b 269 494 17 610 129 494 b 524 750 410 494 524 610 z m 483 750 b 269 536 483 632 388 536 b 57 750 151 536 57 633 b 269 964 57 867 153 964 b 483 750 386 964 483 867 z m 415 614 l 415 632 b 383 646 400 632 393 635 l 303 744 b 374 815 342 753 374 772 b 261 888 374 876 310 888 l 136 888 l 136 868 b 172 835 163 868 172 863 l 172 669 b 136 632 172 638 168 633 l 136 614 l 265 614 l 265 632 b 228 667 238 632 228 638 l 228 736 l 235 736 l 244 736 l 338 614 z m 313 810 b 236 757 313 763 275 757 l 228 757 l 228 856 b 253 865 228 868 244 865 b 313 810 289 865 313 847 z "},"™":{"ha":1114,"x_min":0,"x_max":0,"o":"m 1029 510 l 1010 510 b 976 583 983 510 978 565 l 964 844 l 963 867 l 963 869 b 979 907 963 882 969 903 b 985 926 982 914 982 919 l 867 926 b 747 594 853 826 778 671 l 635 868 b 628 901 632 874 628 897 b 631 926 628 911 628 919 l 486 926 l 479 904 b 511 881 496 904 508 900 b 514 796 514 853 514 824 b 468 511 514 743 492 514 b 460 486 465 501 463 494 l 585 486 l 593 510 b 538 565 553 510 538 521 b 557 861 538 663 550 764 l 681 572 b 706 486 692 547 703 515 l 754 486 b 889 865 800 613 844 739 b 901 546 893 760 901 653 b 885 510 901 529 893 513 b 878 486 882 503 881 494 l 1021 486 z m 442 928 l 63 928 l 53 832 l 76 833 b 172 899 90 894 122 899 l 206 899 l 206 550 b 188 508 206 532 201 508 b 181 488 185 501 183 493 l 331 488 l 339 508 b 282 557 299 508 282 514 l 282 899 l 313 899 b 406 847 354 899 406 894 b 404 828 406 840 404 835 l 425 828 z "},"¤":{"ha":824,"x_min":0,"x_max":0,"o":"m 725 224 l 636 313 b 701 494 678 367 701 425 b 636 678 701 565 676 621 l 724 765 l 682 807 l 594 719 b 411 785 539 761 481 785 b 228 719 342 785 282 761 l 140 808 l 97 765 l 186 678 b 121 494 142 622 121 567 b 186 313 121 429 143 363 l 99 224 l 140 182 l 229 269 b 411 204 281 228 344 204 b 593 269 482 204 536 231 l 682 181 z m 638 494 b 411 268 638 369 536 268 b 186 494 286 268 186 371 b 411 719 186 618 288 719 b 638 494 535 719 638 619 z "},"€":{"ha":692,"x_min":0,"x_max":0,"o":"m 29 419 l 29 381 l 114 381 b 113 344 114 368 113 357 l 113 311 l 29 311 l 29 272 l 118 272 b 442 -8 144 97 275 -8 b 643 29 519 -8 586 6 l 657 107 b 499 49 600 65 546 49 b 264 272 372 49 290 136 l 511 272 l 511 311 l 258 311 b 254 378 256 332 254 354 l 254 381 l 542 381 l 542 419 l 256 419 b 435 644 265 554 322 644 b 590 517 510 644 582 624 l 651 529 l 651 672 b 453 689 586 685 525 689 b 119 419 296 689 151 590 z "},"¢":{"ha":678,"x_min":0,"x_max":0,"o":"m 606 542 b 488 583 582 554 525 578 l 514 706 l 469 710 l 438 592 l 383 592 b 93 329 210 592 93 483 b 333 85 93 196 193 108 l 301 -32 l 347 -46 l 379 76 b 433 72 396 74 415 72 b 578 103 475 72 542 82 l 586 161 b 451 117 556 135 490 117 b 388 126 431 117 406 122 l 474 533 b 554 428 515 515 542 479 l 592 433 z m 428 547 l 342 140 b 217 364 253 178 217 267 b 383 551 217 463 260 551 b 428 547 399 551 415 550 z "},"£":{"ha":631,"x_min":0,"x_max":0,"o":"m 593 178 l 533 182 b 401 51 517 118 474 51 l 350 51 b 283 74 326 51 300 53 b 271 197 271 90 271 172 l 271 315 l 399 315 l 413 361 l 271 361 l 271 426 b 403 643 271 522 281 643 b 493 571 456 643 493 622 l 493 560 l 492 546 l 544 538 l 569 646 b 397 683 519 665 454 683 l 390 683 b 138 443 214 681 140 565 l 138 365 l 75 365 l 60 322 l 138 322 b 139 200 138 294 139 228 l 139 169 b 97 32 139 110 136 32 b 92 3 94 24 93 11 l 564 1 z "},"ƒ":{"ha":519,"x_min":0,"x_max":0,"o":"m 610 1024 b 568 1026 594 1026 583 1026 b 142 713 335 1026 142 919 l 142 706 b 33 626 142 675 68 629 l 22 594 l 135 594 l 136 -4 b -35 -239 136 -101 117 -239 b -140 -187 -67 -239 -131 -226 b -176 -199 -156 -192 -160 -194 l -187 -294 b -140 -297 -172 -296 -156 -297 b 286 18 94 -297 286 -190 l 286 590 l 492 590 l 515 656 l 286 656 l 286 697 b 479 975 286 817 296 975 b 575 922 511 975 575 961 b 596 926 583 926 588 925 z "},"¥":{"ha":743,"x_min":0,"x_max":0,"o":"m 708 676 l 504 676 l 492 647 b 557 597 533 647 557 640 b 529 524 557 572 544 546 l 424 367 l 285 578 b 258 625 274 596 267 608 b 257 632 257 628 257 631 b 292 647 257 643 275 643 b 296 678 296 657 294 674 l 51 676 l 40 647 b 121 585 82 647 103 613 l 288 332 l 183 332 l 183 294 l 311 294 l 315 289 l 315 224 l 186 224 l 186 186 l 315 186 l 315 113 b 285 28 315 86 307 28 b 276 1 282 19 279 13 l 518 1 l 529 32 l 517 32 b 446 122 456 32 446 72 l 446 186 l 578 186 l 578 222 l 446 222 l 446 293 l 575 293 l 575 331 l 458 331 l 636 597 b 701 647 650 617 676 647 b 708 676 706 658 706 667 z "},"ª":{"ha":475,"x_min":0,"x_max":0,"o":"m 446 639 b 389 690 415 639 399 671 b 317 860 363 747 342 803 b 281 953 306 885 286 925 l 175 946 b 179 925 179 940 179 932 b 164 863 179 903 172 883 l 106 722 b 39 636 96 700 68 639 b 44 622 40 632 43 626 l 164 622 l 168 639 b 132 664 144 639 132 642 b 158 753 132 696 147 725 l 281 753 l 310 683 b 314 660 313 676 314 668 b 300 636 314 647 311 638 b 297 622 300 636 299 628 l 442 625 z m 268 785 l 169 785 l 214 901 z "},"º":{"ha":496,"x_min":0,"x_max":0,"o":"m 447 790 b 253 960 447 894 364 960 b 51 790 144 960 51 893 b 249 615 51 690 139 615 b 447 790 358 615 447 688 z m 365 776 b 263 649 365 707 338 649 l 260 649 b 133 815 171 650 133 739 b 249 931 133 893 168 931 b 365 776 339 931 365 854 z "},"¹":{"ha":511,"x_min":0,"x_max":0,"o":"m 431 556 b 393 554 422 556 408 554 b 313 578 361 554 324 558 b 297 713 300 600 297 658 b 300 824 297 760 300 806 l 300 854 b 324 933 300 883 303 917 l 313 944 b 82 882 242 911 160 893 l 67 831 b 219 882 113 854 165 874 l 219 636 b 119 556 219 560 185 556 l 93 556 l 85 533 l 422 533 z "},"²":{"ha":511,"x_min":0,"x_max":0,"o":"m 460 594 l 175 594 l 283 668 b 392 808 333 701 392 750 b 367 872 392 831 382 853 b 225 917 338 910 275 917 b 86 897 197 917 111 911 b 79 815 85 869 82 842 l 100 811 b 207 874 119 854 151 874 b 300 799 261 874 300 846 b 71 575 300 707 161 610 l 58 533 l 321 532 b 424 504 349 532 415 532 z "},"³":{"ha":511,"x_min":0,"x_max":0,"o":"m 165 354 b 442 542 300 354 442 407 b 236 700 442 639 342 696 b 386 826 299 718 386 764 b 236 918 386 897 306 918 b 94 900 189 918 140 911 l 81 824 l 103 815 b 204 876 111 856 158 876 b 303 808 253 876 303 856 b 149 704 303 750 211 704 l 146 704 l 138 674 b 175 676 150 675 163 676 b 350 538 271 676 350 632 b 186 389 350 446 296 389 b 57 426 132 389 97 393 l 57 368 b 165 354 93 361 128 354 z "},"⁄":{"ha":704,"x_min":0,"x_max":0,"o":"m 717 993 l 672 1019 l -57 -151 l -15 -183 z "},"¼":{"ha":968,"x_min":0,"x_max":0,"o":"m 869 993 l 825 1019 l 96 -151 l 138 -183 z m 904 131 l 796 131 l 796 256 l 714 238 l 714 132 l 556 132 b 800 492 650 249 718 368 l 711 474 b 510 135 688 376 586 211 l 492 79 l 714 79 l 714 -96 l 796 -79 l 796 79 l 883 79 z m 429 556 b 392 554 421 556 407 554 b 311 578 360 554 322 558 b 296 713 299 600 296 658 b 299 824 296 760 299 806 l 299 854 b 322 933 299 883 301 917 l 311 944 b 81 882 240 911 158 893 l 65 831 b 218 882 111 854 164 874 l 218 636 b 118 556 218 560 183 556 l 92 556 l 83 533 l 421 533 z "},"½":{"ha":968,"x_min":0,"x_max":0,"o":"m 858 993 l 814 1019 l 85 -151 l 126 -183 z m 901 61 l 617 61 l 725 135 b 833 275 775 168 833 217 b 808 339 833 297 824 319 b 667 383 779 376 717 383 b 528 364 639 383 553 378 b 521 282 526 336 524 308 l 542 278 b 649 340 561 321 593 340 b 742 265 703 340 742 313 b 513 42 742 174 603 76 l 500 0 l 763 -1 b 865 -29 790 -1 857 -1 z m 432 556 b 394 554 424 556 410 554 b 314 578 363 554 325 558 b 299 713 301 600 299 658 b 301 824 299 760 301 806 l 301 854 b 325 933 301 883 304 917 l 314 944 b 83 882 243 911 161 893 l 68 831 b 221 882 114 854 167 874 l 221 636 b 121 556 221 560 186 556 l 94 556 l 86 533 l 424 533 z "},"¾":{"ha":968,"x_min":0,"x_max":0,"o":"m 894 993 l 850 1019 l 121 -151 l 163 -183 z m 160 354 b 436 542 294 354 436 407 b 231 700 436 639 336 696 b 381 826 293 718 381 764 b 231 918 381 897 300 918 b 89 900 183 918 135 911 l 75 824 l 97 815 b 199 876 106 856 153 876 b 297 808 247 876 297 856 b 143 704 297 750 206 704 l 140 704 l 132 674 b 169 676 144 675 157 676 b 344 538 265 676 344 632 b 181 389 344 446 290 389 b 51 426 126 389 92 393 l 51 368 b 160 354 88 361 122 354 z m 915 131 l 807 131 l 807 256 l 725 238 l 725 132 l 567 132 b 811 492 661 249 729 368 l 722 474 b 521 135 699 376 597 211 l 503 79 l 725 79 l 725 -96 l 807 -79 l 807 79 l 894 79 z "},"‰":{"ha":1392,"x_min":0,"x_max":0,"o":"m 824 914 l 774 940 l 738 882 b 596 876 690 876 643 876 b 375 882 522 876 449 878 b 250 917 332 910 301 917 b 51 710 142 917 51 814 b 257 539 51 606 163 539 b 458 728 360 539 458 621 b 408 839 458 767 435 811 b 526 835 447 836 486 835 b 721 851 592 835 658 839 l 79 -81 l 118 -114 z m 888 176 b 690 365 888 283 793 365 b 490 169 583 365 490 276 b 694 -14 490 58 590 -14 b 888 176 797 -14 888 74 z m 1350 176 b 1153 365 1350 282 1256 365 b 953 169 1047 365 953 276 b 1157 -14 953 58 1053 -14 b 1350 176 1260 -14 1350 74 z m 389 725 b 267 583 389 654 342 583 b 119 729 192 583 119 654 b 257 878 119 801 181 878 b 389 725 335 878 389 797 z m 1285 172 b 1161 31 1285 103 1236 31 b 1022 176 1085 31 1022 100 b 1144 322 1022 246 1068 322 b 1285 172 1222 322 1285 247 z m 822 172 b 699 32 822 103 774 32 b 560 176 621 32 560 100 b 682 322 560 246 604 322 b 822 172 760 322 822 249 z "},"−":{"ha":1000,"x_min":0,"x_max":0,"o":"m 904 431 l 99 431 l 99 365 l 903 365 z "},"±":{"ha":1000,"x_min":0,"x_max":0,"o":"m 904 447 l 904 511 l 535 511 l 535 835 l 471 835 l 471 511 l 100 511 l 100 447 l 469 447 l 469 121 l 535 121 l 535 447 z m 914 1 l 914 61 l 89 61 l 89 1 z "},"×":{"ha":1000,"x_min":0,"x_max":0,"o":"m 839 103 l 546 396 l 819 669 l 775 714 l 500 440 l 226 715 l 182 669 l 456 396 l 171 110 l 215 65 l 500 350 l 793 58 z "},"÷":{"ha":1000,"x_min":0,"x_max":0,"o":"m 903 365 l 903 429 l 99 429 l 99 365 z m 588 615 b 507 693 588 661 551 693 b 429 615 461 693 429 660 b 507 535 429 569 460 535 b 588 615 553 535 588 568 z m 592 164 b 513 242 592 210 557 242 b 433 164 467 242 433 210 b 513 85 433 117 464 85 b 592 164 560 85 592 117 z "},"≠":{"ha":824,"x_min":0,"x_max":0,"o":"m 756 178 l 756 238 l 388 238 l 492 432 l 756 432 l 756 492 l 524 492 l 617 664 l 565 692 l 458 492 l 68 492 l 68 432 l 425 432 l 322 238 l 68 238 l 68 178 l 290 178 l 200 10 l 251 -18 l 356 178 z "},"≈":{"ha":824,"x_min":0,"x_max":0,"o":"m 769 539 l 724 539 b 606 425 710 479 674 425 b 494 451 568 425 529 440 b 213 529 413 476 297 529 b 47 354 107 529 64 444 l 96 354 b 214 469 107 414 149 469 b 606 365 314 469 489 365 b 769 539 708 365 754 449 z m 769 314 l 724 314 b 606 200 711 254 672 200 b 214 304 503 200 332 304 b 47 129 107 304 64 221 l 96 129 b 214 244 107 189 149 244 b 606 142 321 244 488 142 b 769 314 704 142 758 225 z "},"≤":{"ha":824,"x_min":0,"x_max":0,"o":"m 756 90 l 756 157 l 150 394 l 756 632 l 756 699 l 68 428 l 68 361 z m 756 -31 l 756 29 l 68 29 l 68 -31 z "},"≥":{"ha":824,"x_min":0,"x_max":0,"o":"m 756 361 l 756 428 l 68 699 l 68 632 l 674 394 l 68 157 l 68 90 z m 756 -31 l 756 29 l 68 29 l 68 -31 z "},"¬":{"ha":1000,"x_min":0,"x_max":0,"o":"m 903 429 l 99 429 l 99 365 l 839 365 l 839 61 l 903 61 z "},"∆":{"ha":765,"x_min":0,"x_max":0,"o":"m 736 26 b 671 107 694 36 686 74 l 453 586 b 428 674 446 601 428 660 l 428 678 l 344 678 b 29 1 331 561 97 54 l 728 1 z m 551 46 l 210 44 b 161 86 182 44 161 57 b 254 306 161 126 238 258 b 349 515 283 386 311 439 l 524 126 b 551 46 535 101 547 75 z "},"Ω":{"ha":921,"x_min":0,"x_max":0,"o":"m 839 396 b 463 688 839 593 665 688 b 81 399 265 688 81 594 b 376 121 81 242 208 149 l 376 96 l 207 96 b 136 135 183 96 136 104 l 136 139 l 107 133 l 129 1 l 407 1 l 407 158 b 219 425 288 193 219 304 b 444 647 219 571 301 647 b 692 376 610 647 692 526 b 513 160 692 260 640 167 l 511 1 l 790 1 l 813 133 l 783 138 l 783 133 b 713 96 783 103 736 96 l 542 96 l 542 121 b 839 396 704 151 839 240 z "},"µ":{"ha":772,"x_min":0,"x_max":0,"o":"m 715 169 l 685 169 l 685 142 b 628 29 685 94 681 29 b 574 147 581 29 574 96 b 575 192 574 165 575 182 l 575 657 l 508 657 b 510 519 508 626 510 578 b 307 29 510 324 489 29 b 183 218 193 29 183 129 l 183 657 l 117 657 b 118 360 117 558 118 458 b 115 136 118 285 117 211 b 99 -181 113 31 99 -75 b 135 -299 99 -203 99 -299 b 169 -204 168 -299 169 -232 l 169 -199 b 150 114 169 -94 154 10 b 301 -8 174 35 215 -8 b 508 207 424 -8 481 104 b 617 -14 514 129 501 -14 b 714 133 703 -14 714 64 l 714 151 b 715 169 714 157 714 164 z "},"π":{"ha":849,"x_min":0,"x_max":0,"o":"m 767 721 l 735 721 b 644 657 728 660 690 657 l 190 657 b 58 514 99 657 63 600 l 89 514 b 190 594 96 575 132 594 l 251 594 b 233 174 242 454 254 314 b 143 50 225 119 211 50 b 76 142 88 50 76 97 l 46 142 b 151 -10 46 67 61 -10 b 232 22 182 -10 210 1 b 289 371 296 85 288 288 b 290 594 290 446 290 519 l 524 594 l 524 146 b 622 -8 524 74 528 -8 b 735 164 719 -8 735 88 l 735 167 l 704 167 b 639 32 704 124 700 32 b 590 118 593 32 590 82 l 590 594 b 767 721 694 594 757 601 z "},"°":{"ha":528,"x_min":0,"x_max":0,"o":"m 446 753 b 261 936 446 854 363 936 b 76 749 157 936 76 851 b 265 565 76 643 163 565 b 446 753 365 565 446 653 z m 392 749 b 268 621 392 679 338 621 b 135 744 199 621 135 674 b 261 879 135 815 188 879 b 392 749 333 879 392 821 z "},"ℓ":{"ha":694,"x_min":0,"x_max":0,"o":"m 579 81 l 561 104 l 558 104 b 428 38 506 57 469 38 b 317 186 367 38 317 74 l 317 399 b 542 843 465 561 542 710 b 419 1001 542 939 494 1001 b 217 682 315 1001 217 890 l 217 369 l 113 260 l 132 236 l 135 236 l 217 322 l 217 168 b 389 -19 217 36 290 -19 b 579 81 460 -19 519 15 z m 478 836 b 317 450 478 711 418 572 l 317 815 b 399 965 317 918 361 965 b 478 836 444 965 478 911 z "},"℮":{"ha":833,"x_min":0,"x_max":0,"o":"m 779 360 b 419 743 778 585 633 743 b 61 360 201 743 61 575 b 419 -24 61 146 201 -24 b 736 164 565 -24 651 32 l 688 193 b 419 26 618 76 535 26 b 218 108 339 26 272 54 l 218 360 z m 218 410 l 218 611 b 418 694 272 665 339 694 b 622 611 496 694 564 667 l 622 410 z "},"∞":{"ha":1003,"x_min":0,"x_max":0,"o":"m 936 339 b 726 540 936 457 842 540 b 499 388 621 540 557 465 b 271 546 442 467 378 546 b 68 338 154 546 68 453 b 275 136 68 222 161 136 b 506 288 383 136 446 206 b 732 131 564 204 619 131 b 936 339 849 131 936 224 z m 465 346 b 268 190 415 289 350 190 b 122 340 186 190 122 260 b 271 492 122 422 188 492 b 465 346 361 492 414 408 z m 882 338 b 733 185 882 257 815 185 b 540 329 644 185 588 264 b 738 485 588 388 657 485 b 882 338 817 485 882 417 z "},"∂":{"ha":721,"x_min":0,"x_max":0,"o":"m 635 507 b 310 1000 635 711 565 1000 b 118 928 235 1000 176 974 l 156 881 b 322 951 200 925 258 951 b 538 750 436 951 508 849 b 565 519 560 676 565 596 l 565 469 b 328 583 500 538 424 583 b 67 296 163 583 67 453 b 331 -18 67 143 163 -18 b 635 507 579 -18 635 319 z m 563 419 b 333 28 549 288 510 28 b 131 283 200 28 131 165 b 342 536 131 413 199 536 b 563 419 438 536 500 485 z "},"∫":{"ha":419,"x_min":0,"x_max":0,"o":"m 558 1024 b 517 1026 544 1025 532 1026 b 124 711 304 1026 124 918 l 124 3 b -51 -239 124 -104 99 -239 b -140 -192 -79 -239 -132 -232 b -174 -200 -153 -196 -162 -199 l -185 -285 b -143 -287 -171 -287 -156 -287 b 251 28 69 -287 251 -181 l 250 738 b 425 976 250 844 276 976 b 515 932 454 976 508 965 b 547 939 529 936 529 936 z "},"√":{"ha":668,"x_min":0,"x_max":0,"o":"m 582 1092 l 529 1092 l 308 -210 l 96 269 l -25 217 l -1 172 l 61 200 l 283 -297 l 342 -297 z "},"∑":{"ha":717,"x_min":0,"x_max":0,"o":"m 697 222 l 642 231 b 443 114 626 131 540 114 l 340 114 b 275 113 315 114 294 113 b 210 118 254 113 235 114 l 476 388 l 281 635 b 346 638 301 636 324 638 b 435 636 376 638 407 636 b 608 524 531 636 596 625 l 664 535 l 664 676 l 121 676 l 108 647 l 353 339 l 40 1 l 671 1 z "},"∏":{"ha":903,"x_min":0,"x_max":0,"o":"m 835 31 l 819 31 b 742 185 744 31 742 128 l 742 436 b 761 628 742 488 744 579 b 794 678 769 650 782 660 l 60 676 l 51 651 l 58 651 b 132 618 88 651 121 643 b 154 371 153 576 154 443 l 154 239 b 118 3 154 165 151 40 l 374 1 l 379 28 l 364 28 b 285 157 290 28 285 100 l 285 636 l 608 636 l 608 104 b 586 1 608 72 607 21 l 829 4 z "},"◊":{"ha":824,"x_min":0,"x_max":0,"o":"m 678 494 l 442 1038 l 379 1038 l 146 494 l 379 -49 l 442 -49 z m 610 494 l 411 25 l 213 494 l 411 964 z "}}}
